<svg width="32" height="21" viewBox="0 0 32 21" fill="none" xmlns="http://www.w3.org/2000/svg">
<g clip-path="url(#clip0_13764_318953)">
<path d="M29.1343 0H2.86575C2.75634 0 2.64675 0 2.53754 0.000634171C2.44522 0.00128756 2.35312 0.00230608 2.26102 0.00480433C2.06015 0.0102044 1.85756 0.0219846 1.6592 0.0574213C1.45768 0.093473 1.27015 0.152278 1.0872 0.244867C0.907346 0.335784 0.742688 0.454701 0.599994 0.596601C0.457238 0.738502 0.337606 0.901907 0.246161 1.08088C0.152996 1.26273 0.0937985 1.4492 0.0577814 1.64967C0.0219401 1.8469 0.0100098 2.04824 0.00459659 2.24769C0.00212198 2.33925 0.0010606 2.4308 0.000459349 2.52233C-0.000178636 2.63112 3.40259e-05 2.73983 3.40259e-05 2.84881V17.515C3.40259e-05 17.624 -0.000178636 17.7325 0.000459349 17.8415C0.0010606 17.9331 0.00212198 18.0246 0.00459659 18.1162C0.0100098 18.3155 0.0219401 18.5168 0.0577814 18.714C0.0937985 18.9145 0.152996 19.1009 0.246161 19.2828C0.337606 19.4618 0.457238 19.6254 0.599994 19.7671C0.742688 19.9092 0.907346 20.0281 1.0872 20.1188C1.27015 20.2116 1.45768 20.2704 1.6592 20.3065C1.85756 20.3417 2.06015 20.3537 2.26102 20.3591C2.35312 20.3611 2.44522 20.3624 2.53754 20.3628C2.64675 20.3636 2.75634 20.3636 2.86575 20.3636H29.1343C29.2435 20.3636 29.3531 20.3636 29.4623 20.3628C29.5544 20.3624 29.6465 20.3611 29.739 20.3591C29.9395 20.3537 30.142 20.3417 30.3409 20.3065C30.5421 20.2704 30.7297 20.2116 30.9126 20.1188C31.0927 20.0281 31.2569 19.9092 31.3999 19.7671C31.5424 19.6254 31.662 19.4618 31.7537 19.2828C31.8471 19.1009 31.9062 18.9145 31.942 18.714C31.9779 18.5168 31.9895 18.3155 31.995 18.1162C31.9975 18.0246 31.9987 17.9331 31.9992 17.8415C32 17.7325 32 17.624 32 17.515V2.84881C32 2.73983 32 2.63112 31.9992 2.52233C31.9987 2.4308 31.9975 2.33925 31.995 2.24769C31.9895 2.04824 31.9779 1.8469 31.942 1.64967C31.9062 1.4492 31.8471 1.26273 31.7537 1.08088C31.662 0.901907 31.5424 0.738502 31.3999 0.596601C31.2569 0.454701 31.0927 0.335784 30.9126 0.244867C30.7297 0.152278 30.5421 0.093473 30.3409 0.0574213C30.142 0.0219846 29.9395 0.0102044 29.739 0.00480433C29.6465 0.00230608 29.5544 0.00128756 29.4623 0.000634171C29.3531 0 29.2435 0 29.1343 0Z" fill="black"/>
<path d="M29.135 0.678711L29.4582 0.679326C29.5457 0.679941 29.6333 0.680882 29.7213 0.683265C29.8744 0.687378 30.0535 0.695622 30.2205 0.725371C30.3656 0.751352 30.4873 0.790863 30.6041 0.849976C30.7195 0.908223 30.8251 0.984554 30.9174 1.07612C31.01 1.16831 31.0869 1.27351 31.1462 1.38941C31.2054 1.50461 31.2449 1.62503 31.2708 1.77035C31.3007 1.9345 31.309 2.11303 31.3131 2.26618C31.3155 2.35262 31.3167 2.43905 31.3171 2.52755C31.3179 2.63457 31.3179 2.74154 31.3179 2.84877V17.515C31.3179 17.6222 31.3179 17.729 31.3171 17.8383C31.3167 17.9247 31.3155 18.0112 31.3131 18.0978C31.3089 18.2507 31.3007 18.4291 31.2705 18.5952C31.2449 18.7385 31.2054 18.859 31.1459 18.9747C31.0867 19.0904 31.0099 19.1954 30.9177 19.287C30.825 19.3793 30.7197 19.4554 30.603 19.5142C30.487 19.573 30.3655 19.6125 30.2218 19.6382C30.0515 19.6684 29.8649 19.6767 29.7243 19.6804C29.6359 19.6824 29.5479 19.6836 29.4577 19.684C29.3503 19.6849 29.2425 19.6848 29.135 19.6848H2.86649C2.86506 19.6848 2.86367 19.6848 2.86222 19.6848C2.756 19.6848 2.64957 19.6848 2.54143 19.684C2.45325 19.6836 2.36526 19.6824 2.2802 19.6805C2.13644 19.6767 1.9497 19.6684 1.78075 19.6384C1.63582 19.6125 1.51431 19.573 1.39684 19.5134C1.28125 19.4551 1.17602 19.3791 1.0832 19.2867C0.991103 19.1953 0.914564 19.0905 0.855386 18.9748C0.79615 18.8591 0.756517 18.7383 0.730459 18.5933C0.700336 18.4275 0.692062 18.2498 0.687926 18.0979C0.685566 18.0109 0.68458 17.924 0.684019 17.8376L0.683594 17.5824L0.683613 17.515V2.84877L0.683594 2.78139L0.684 2.52674C0.68458 2.43979 0.685566 2.35285 0.687926 2.26596C0.692062 2.11394 0.700336 1.93614 0.730708 1.76899C0.756537 1.62526 0.79615 1.50446 0.855695 1.38821C0.914409 1.27331 0.991083 1.16843 1.08367 1.07641C1.17589 0.984708 1.28146 0.908473 1.39779 0.849668C1.514 0.790844 1.63574 0.751352 1.78068 0.725428C1.94767 0.695603 2.12691 0.687378 2.28041 0.683246C2.36791 0.680882 2.45541 0.679941 2.54226 0.679345L2.86649 0.678711H29.135Z" fill="white"/>
<path d="M8.73241 6.84921C9.00641 6.50855 9.19234 6.05115 9.1433 5.58374C8.74221 5.60356 8.25276 5.84677 7.96939 6.18769C7.71496 6.47964 7.48976 6.9562 7.54847 7.40402C7.99871 7.44284 8.44854 7.18031 8.73241 6.84921Z" fill="black"/>
<path d="M9.14009 7.49136C8.48623 7.45265 7.93029 7.86024 7.61804 7.86024C7.30562 7.86024 6.82746 7.51087 6.31029 7.52029C5.63716 7.53012 5.01258 7.90843 4.671 8.51013C3.96842 9.71383 4.48559 11.4993 5.16881 12.4797C5.50059 12.9647 5.90045 13.4987 6.42733 13.4795C6.92514 13.4601 7.12026 13.1591 7.72537 13.1591C8.33004 13.1591 8.5058 13.4795 9.03276 13.4698C9.57923 13.4601 9.92088 12.9846 10.2527 12.4991C10.6333 11.9462 10.7891 11.4124 10.7989 11.383C10.7891 11.3733 9.74514 10.9752 9.73546 9.78156C9.72561 8.78206 10.5551 8.30665 10.5941 8.27716C10.1257 7.58852 9.39382 7.51087 9.14009 7.49136Z" fill="black"/>
<path d="M14.8319 6.13892C16.2531 6.13892 17.2427 7.11267 17.2427 8.53039C17.2427 9.95317 16.2327 10.932 14.7963 10.932H13.2228V13.4193H12.0859V6.13892H14.8319V6.13892ZM13.2228 9.98343H14.5272C15.517 9.98343 16.0804 9.45373 16.0804 8.53545C16.0804 7.61726 15.517 7.09253 14.5323 7.09253H13.2228V9.98343Z" fill="black"/>
<path d="M17.5391 11.9109C17.5391 10.9825 18.2547 10.4124 19.5237 10.3418L20.9854 10.256V9.84738C20.9854 9.25705 20.5844 8.90389 19.9146 8.90389C19.28 8.90389 18.884 9.20655 18.7877 9.68087H17.7523C17.8132 8.7222 18.6354 8.01587 19.9551 8.01587C21.2494 8.01587 22.0766 8.69699 22.0766 9.76155V13.4194H21.026V12.5466H21.0007C20.6911 13.1369 20.016 13.5102 19.3156 13.5102C18.27 13.5102 17.5391 12.8644 17.5391 11.9109ZM20.9854 11.4316V11.0129L19.6708 11.0935C19.016 11.139 18.6456 11.4265 18.6456 11.8806C18.6456 12.3447 19.0313 12.6475 19.6201 12.6475C20.3865 12.6475 20.9854 12.1228 20.9854 11.4316Z" fill="black"/>
<path d="M23.0709 15.3718V14.4889C23.1519 14.509 23.3346 14.509 23.4261 14.509C23.9336 14.509 24.2077 14.2972 24.3751 13.7523C24.3751 13.7422 24.4716 13.4294 24.4716 13.4243L22.543 8.11157H23.7305L25.0808 12.4304H25.101L26.4512 8.11157H27.6084L25.6085 13.6967C25.1519 14.9833 24.624 15.397 23.5175 15.397C23.4261 15.397 23.1519 15.3869 23.0709 15.3718Z" fill="black"/>
</g>
<defs>
<clipPath id="clip0_13764_318953">
<rect width="32" height="20.3636" fill="white"/>
</clipPath>
</defs>
</svg>
