<svg width="20" height="23" viewBox="0 0 20 23" fill="none" xmlns="http://www.w3.org/2000/svg">
<g clip-path="url(#clip0_13024_368733)">
<path d="M5.95849 19.5544L5.91698 20.293C5.91698 20.5418 5.88679 20.7599 5.86793 20.9436C5.84151 21.2498 5.81132 21.9846 5.42264 21.9846C5.40125 21.9846 5.38068 21.993 5.36521 22.0079C5.34977 22.0229 5.34057 22.0433 5.33962 22.065V22.5357C5.3391 22.5471 5.34087 22.5585 5.34483 22.5692C5.34876 22.5798 5.35479 22.5896 5.36257 22.5978C5.3703 22.606 5.37966 22.6126 5.39 22.617C5.4003 22.6215 5.4114 22.6238 5.42264 22.6238H5.4566C5.60872 22.6422 5.76279 22.6159 5.90061 22.548C6.03842 22.4802 6.15411 22.3737 6.23396 22.2411C6.30819 22.1218 6.36653 21.9931 6.40755 21.8583C6.45543 21.7098 6.49079 21.5575 6.51321 21.4029C6.53962 21.2307 6.55849 21.047 6.57359 20.8441C6.58868 20.6413 6.60755 20.4193 6.62264 20.182V19.8453H7.55472V22.5243C7.55521 22.5353 7.55785 22.5462 7.56245 22.5562C7.5671 22.5662 7.57362 22.5752 7.58166 22.5827C7.58974 22.5902 7.59917 22.596 7.60944 22.5997C7.61974 22.6035 7.6306 22.6052 7.64151 22.6046H8.19245C8.204 22.6052 8.21551 22.6033 8.2263 22.599C8.23706 22.5948 8.24683 22.5884 8.25502 22.5801C8.26317 22.5718 8.26959 22.5619 8.27374 22.5509C8.27793 22.54 8.27977 22.5283 8.27925 22.5166V19.4549C8.27826 19.4224 8.27094 19.3904 8.25766 19.3608C8.24438 19.3312 8.22544 19.3046 8.20189 19.2825C8.17834 19.2604 8.15072 19.2433 8.12057 19.2322C8.09045 19.221 8.05845 19.2161 8.02642 19.2176H6.2C6.14079 19.2194 6.08438 19.2435 6.04177 19.2853C5.99921 19.3271 5.97355 19.3835 5.96981 19.4434C5.97144 19.4753 5.97144 19.5072 5.96981 19.5391L5.95849 19.5544ZM0.249058 22.6008H1.48302C1.6271 22.6102 1.77159 22.5897 1.90762 22.5406C2.04366 22.4916 2.16842 22.4149 2.27434 22.3154C2.38023 22.2159 2.46506 22.0955 2.52362 21.9617C2.58223 21.8278 2.61336 21.6833 2.6151 21.5369C2.62234 21.472 2.62234 21.4065 2.6151 21.3417C2.57087 21.09 2.44083 20.8619 2.2477 20.6976C2.05457 20.5332 1.81064 20.4428 1.55849 20.4423H0.728303V19.8606H2.16604C2.17808 19.8619 2.19027 19.8604 2.20166 19.8562C2.21302 19.852 2.22328 19.8451 2.23166 19.8363C2.24008 19.8274 2.2463 19.8167 2.25 19.805C2.25366 19.7933 2.2546 19.7809 2.25283 19.7687V19.3362C2.25283 19.2788 2.25283 19.2291 2.16604 19.2329H0.252832C0.220567 19.2303 0.188115 19.2344 0.157511 19.2452C0.126907 19.2559 0.0988317 19.273 0.0750581 19.2953C0.0512845 19.3176 0.0323789 19.3447 0.0194355 19.3747C0.00652984 19.4049 -0.000111784 19.4374 1.42326e-06 19.4702V22.3865C1.42326e-06 22.418 0.00615218 22.4492 0.0181522 22.4782C0.0301522 22.5072 0.0477375 22.5336 0.0698507 22.5556C0.0920016 22.5777 0.118228 22.5951 0.147058 22.6068C0.17585 22.6185 0.206718 22.6243 0.237737 22.6238L0.249058 22.6008ZM15.483 22.5013V21.3532H16.2755C16.5537 21.3532 16.8208 21.2419 17.0186 21.0434C17.2165 20.8449 17.3291 20.5752 17.3321 20.293C17.3282 20.0648 17.2531 19.8436 17.1175 19.6614C16.9819 19.4791 16.7928 19.3452 16.5774 19.2788C16.4544 19.2452 16.3273 19.2298 16.2 19.2329H14.9925C14.9616 19.2314 14.9308 19.2362 14.9018 19.247C14.8728 19.2577 14.8462 19.2744 14.8237 19.2958C14.8011 19.3172 14.7831 19.343 14.7706 19.3717C14.7581 19.4003 14.7514 19.4312 14.7509 19.4625C14.7491 19.4842 14.7491 19.506 14.7509 19.5276V22.5434C14.7509 22.5543 14.7531 22.5651 14.7573 22.5751C14.7615 22.5851 14.7677 22.5941 14.7755 22.6016C14.7832 22.6091 14.7924 22.615 14.8025 22.6188C14.8125 22.6226 14.8232 22.6243 14.834 22.6238H15.3962C15.4102 22.6235 15.4239 22.6194 15.4358 22.612C15.4477 22.6046 15.4575 22.5941 15.4642 22.5817C15.4725 22.5638 15.4751 22.5437 15.4717 22.5243L15.483 22.5013ZM16.5774 20.3083C16.578 20.3685 16.5664 20.4281 16.5434 20.4835C16.5205 20.5388 16.4865 20.5889 16.4437 20.6305C16.4009 20.6721 16.3502 20.7044 16.2947 20.7253C16.2391 20.7462 16.1799 20.7554 16.1208 20.7523H15.4717V19.8644H16.0906C16.152 19.8574 16.2143 19.8636 16.2732 19.8828C16.3321 19.9019 16.3863 19.9335 16.4323 19.9755C16.4783 20.0174 16.515 20.0688 16.54 20.1261C16.565 20.1835 16.5777 20.2456 16.5774 20.3083ZM13.5887 21.9004L13.7736 22.5319C13.7736 22.5893 13.8189 22.6085 13.8566 22.6085H14.4604C14.4734 22.6092 14.4865 22.6067 14.4983 22.6012C14.5102 22.5956 14.5205 22.5871 14.5283 22.5765C14.5362 22.5659 14.5413 22.5534 14.5433 22.5403C14.5452 22.5272 14.544 22.5138 14.5396 22.5013L13.5585 19.497C13.5094 19.3516 13.4415 19.2329 13.2717 19.2329H12.8453C12.8033 19.2279 12.7608 19.2346 12.7223 19.2521C12.6838 19.2696 12.6506 19.2974 12.6264 19.3324C12.5917 19.3822 12.5661 19.438 12.5509 19.497L11.5623 22.5128C11.5582 22.5252 11.5569 22.5384 11.5587 22.5514C11.5605 22.5643 11.5653 22.5767 11.5726 22.5874C11.5799 22.5982 11.5896 22.6071 11.6009 22.6134C11.6123 22.6198 11.6248 22.6233 11.6377 22.6238H12.2189C12.2363 22.6266 12.2541 22.6232 12.2692 22.6141C12.2844 22.605 12.2959 22.5909 12.3019 22.574C12.304 22.5601 12.304 22.5459 12.3019 22.5319L12.4868 21.9157L13.5887 21.9004ZM12.6679 21.3034L12.8491 20.6872L13.0302 19.9983H13.0566L13.234 20.6872L13.4151 21.3034H12.6679ZM10.6566 20.802V20.7791C10.7593 20.7182 10.8471 20.6345 10.9132 20.5341C10.9852 20.4248 11.0365 20.3028 11.0642 20.1744L11.283 19.3133C11.2852 19.3015 11.2849 19.2894 11.282 19.2778C11.279 19.2662 11.2735 19.2554 11.2659 19.2463C11.2583 19.2371 11.2488 19.2298 11.238 19.2248C11.2273 19.2199 11.2156 19.2174 11.2038 19.2176H10.683C10.6646 19.212 10.6449 19.212 10.6264 19.2176C10.6075 19.2176 10.5962 19.2444 10.5887 19.275L10.3736 20.0902C10.354 20.1749 10.3194 20.2553 10.2717 20.3275C10.2336 20.3808 10.1847 20.4251 10.1283 20.4576C10.0796 20.484 10.0275 20.5033 9.97359 20.515H9.82264H9.44528V19.3133C9.44581 19.3026 9.44415 19.2919 9.44034 19.2819C9.43657 19.2719 9.43075 19.2628 9.42328 19.2553C9.41581 19.2477 9.40687 19.2417 9.39698 19.2379C9.38713 19.2341 9.3766 19.2324 9.36604 19.2329H8.80755C8.78611 19.2318 8.76513 19.2392 8.74898 19.2535C8.73279 19.2677 8.72268 19.2878 8.72076 19.3094V22.5472C8.72121 22.5581 8.72385 22.5689 8.72853 22.5787C8.73321 22.5885 8.73981 22.5973 8.74792 22.6044C8.75604 22.6116 8.76551 22.617 8.77577 22.6203C8.78604 22.6237 8.79683 22.6248 8.80755 22.6238H9.36227C9.37268 22.6243 9.3831 22.6227 9.39291 22.6192C9.40272 22.6156 9.41174 22.6101 9.41943 22.603C9.42713 22.5959 9.4334 22.5873 9.43785 22.5777C9.44226 22.5682 9.44479 22.5578 9.44528 22.5472V21.1082H9.82264C9.9166 21.107 10.0104 21.1173 10.1019 21.1388C10.1757 21.1615 10.2422 21.2037 10.2943 21.2613C10.3515 21.3366 10.3938 21.4224 10.4189 21.5139L10.7132 22.5664C10.7181 22.5829 10.728 22.5974 10.7416 22.6077C10.7552 22.6181 10.7717 22.6237 10.7887 22.6238H11.3434C11.3555 22.6246 11.3677 22.6226 11.3789 22.6179C11.3901 22.6132 11.4001 22.6059 11.4082 22.5967C11.4162 22.5874 11.422 22.5765 11.4252 22.5646C11.4283 22.5527 11.4288 22.5402 11.4264 22.5281L11.1283 21.4029C11.1121 21.3367 11.0919 21.2715 11.0679 21.2077C11.0479 21.1504 11.02 21.0963 10.9849 21.047C10.9486 20.9962 10.9039 20.9522 10.8528 20.9169C10.7909 20.877 10.7252 20.8436 10.6566 20.8174V20.802ZM5.16604 22.5128V22.0688C5.16657 22.058 5.16491 22.0471 5.16113 22.0369C5.1574 22.0267 5.15162 22.0174 5.14419 22.0095C5.13679 22.0017 5.12789 21.9954 5.118 21.9911C5.10815 21.9869 5.09751 21.9846 5.08679 21.9846H3.79245C3.75959 21.9847 3.72702 21.9779 3.69691 21.9647C3.66676 21.9513 3.63966 21.9319 3.61732 21.9074C3.59498 21.8829 3.57789 21.8541 3.5671 21.8226C3.55634 21.7911 3.55211 21.7576 3.55472 21.7244V21.0814H4.93208C4.94279 21.082 4.95351 21.0803 4.96355 21.0764C4.97362 21.0727 4.98279 21.0668 4.99057 21.0593C4.99834 21.0518 5.00453 21.0427 5.00872 21.0327C5.01295 21.0227 5.0151 21.012 5.0151 21.0011V20.5456C5.01521 20.534 5.01283 20.5226 5.00819 20.512C5.00351 20.5014 4.99664 20.492 4.98804 20.4843C4.97943 20.4767 4.96928 20.471 4.95834 20.4677C4.94736 20.4644 4.93585 20.4636 4.92453 20.4653H3.55472V20.1055C3.55472 20.0416 3.57974 19.9802 3.62434 19.935C3.66891 19.8898 3.7294 19.8644 3.79245 19.8644H5.08302C5.09374 19.8649 5.10445 19.8632 5.11449 19.8594C5.12457 19.8556 5.13374 19.8498 5.14151 19.8423C5.14928 19.8348 5.15544 19.8257 5.15966 19.8157C5.16389 19.8057 5.16604 19.7949 5.16604 19.784V19.3133C5.16615 19.3017 5.16381 19.2902 5.15913 19.2796C5.15445 19.269 5.14759 19.2596 5.13898 19.252C5.13038 19.2443 5.12027 19.2387 5.10928 19.2354C5.09834 19.2321 5.08679 19.2313 5.07547 19.2329L3.74717 19.2214C3.50993 19.2214 3.28223 19.3162 3.11343 19.4853C2.9446 19.6544 2.84827 19.8841 2.84528 20.1246V21.7282C2.84823 21.9645 2.94234 22.1901 3.1074 22.3568C3.27249 22.5235 3.49536 22.618 3.7283 22.6199H5.10189C5.11245 22.6205 5.12298 22.6188 5.13287 22.615C5.14272 22.6111 5.15166 22.6052 5.15913 22.5976C5.1666 22.5901 5.17242 22.581 5.17619 22.571C5.18 22.561 5.18166 22.5503 5.18113 22.5396C5.17777 22.5298 5.17264 22.5207 5.16604 22.5128ZM19.0302 19.8644V22.5434C19.0297 22.5543 19.0271 22.565 19.0224 22.5749C19.0177 22.5847 19.0111 22.5935 19.003 22.6006C18.9949 22.6078 18.9854 22.6132 18.9752 22.6165C18.9649 22.6198 18.9541 22.621 18.9434 22.6199H18.3925C18.3817 22.621 18.3709 22.6198 18.3607 22.6165C18.3505 22.6132 18.341 22.6078 18.3328 22.6006C18.3247 22.5935 18.3181 22.5847 18.3134 22.5749C18.3088 22.565 18.3061 22.5543 18.3057 22.5434V19.8644H17.4377C17.4273 19.8639 17.4171 19.8613 17.4077 19.8568C17.3983 19.8523 17.3898 19.846 17.3828 19.8382C17.3758 19.8304 17.3703 19.8212 17.3668 19.8113C17.3633 19.8013 17.3618 19.7908 17.3623 19.7802V19.3171C17.3618 19.3066 17.3633 19.296 17.3668 19.2861C17.3703 19.2761 17.3758 19.267 17.3828 19.2592C17.3898 19.2513 17.3983 19.245 17.4077 19.2405C17.4171 19.236 17.4273 19.2334 17.4377 19.2329H19.9132C19.9236 19.2334 19.9338 19.236 19.9432 19.2405C19.9527 19.245 19.9612 19.2513 19.9682 19.2592C19.9752 19.267 19.9806 19.2761 19.9841 19.2861C19.9876 19.296 19.9892 19.3066 19.9887 19.3171V19.7802C19.9892 19.7908 19.9876 19.8013 19.9841 19.8113C19.9806 19.8212 19.9752 19.8304 19.9682 19.8382C19.9612 19.846 19.9527 19.8523 19.9432 19.8568C19.9338 19.8613 19.9236 19.8639 19.9132 19.8644H19.0302ZM1.88302 21.5177C1.88464 21.5795 1.8737 21.6409 1.85079 21.6981C1.82789 21.7554 1.79359 21.8072 1.75 21.8503C1.70638 21.8935 1.65445 21.927 1.59747 21.9488C1.54049 21.9706 1.4797 21.9802 1.41887 21.977H0.728303V21.0814H1.42264C1.48113 21.0794 1.53944 21.0891 1.59423 21.1099C1.64902 21.1307 1.69925 21.1623 1.742 21.2028C1.78476 21.2433 1.81925 21.292 1.84344 21.346C1.86762 21.4001 1.88106 21.4584 1.88302 21.5177Z" fill="#005894"/>
<path fill-rule="evenodd" clip-rule="evenodd" d="M18.9272 10.2812L16.2103 7.52565L15.1235 6.42343L17.1008 7.52565C17.1509 7.52565 17.1989 7.50552 17.2342 7.46962C17.2696 7.43372 17.2895 7.38504 17.2895 7.33429V3.70997C17.2895 3.65922 17.2696 3.61058 17.2342 3.57468C17.1989 3.53878 17.1509 3.51862 17.1008 3.51862H11.7235L13.9121 2.89096C13.9469 2.85456 13.9664 2.80584 13.9664 2.7551C13.9664 2.70439 13.9469 2.65567 13.9121 2.61923L11.3838 0.0550348C11.3479 0.0197484 11.2999 0 11.2499 0C11.1999 0 11.1518 0.0197484 11.1159 0.0550348L8.42913 2.7838L7.29705 3.96257L8.42913 1.89207C8.42913 1.84132 8.40924 1.79268 8.37385 1.75678C8.33849 1.72088 8.29049 1.70071 8.24045 1.70071H4.66309C4.61305 1.70071 4.56505 1.72088 4.5297 1.75678C4.4943 1.79268 4.47441 1.84132 4.47441 1.89207V5.76133V7.33429L3.84045 5.11837C3.80517 5.08331 3.75777 5.06368 3.70838 5.06368C3.65898 5.06368 3.61155 5.08331 3.5763 5.11837L1.048 7.68257C1.0303 7.70036 1.01626 7.72153 1.00668 7.74483C0.997093 7.76818 0.992188 7.79317 0.992188 7.81843C0.992188 7.84369 0.997093 7.86872 1.00668 7.89203C1.01626 7.91537 1.0303 7.93654 1.048 7.95429L4.85177 11.8121L2.87819 10.706C2.82815 10.706 2.78015 10.7262 2.74475 10.7621C2.70939 10.798 2.68951 10.8466 2.68951 10.8974V14.5255C2.68951 14.5763 2.70939 14.625 2.74475 14.6609C2.78015 14.6968 2.82815 14.7169 2.87819 14.7169H8.27441L6.08951 15.3407C6.05471 15.3771 6.03524 15.4259 6.03524 15.4766C6.03524 15.5273 6.05471 15.576 6.08951 15.6124L8.61781 18.1766C8.6537 18.212 8.70177 18.2317 8.75177 18.2317C8.80177 18.2317 8.84981 18.212 8.88573 18.1766L11.5612 15.4632L12.6706 14.315L11.5612 16.3281C11.5612 16.3789 11.5811 16.4276 11.6164 16.4634C11.6518 16.4993 11.6998 16.5195 11.7499 16.5195H15.3272C15.3518 16.5195 15.3762 16.5145 15.3989 16.5049C15.4216 16.4952 15.4421 16.4811 15.4593 16.4632C15.4766 16.4454 15.4901 16.4243 15.4992 16.4011C15.5083 16.3779 15.5126 16.3531 15.5121 16.3281V10.8936L16.1499 13.1171C16.1858 13.1525 16.2338 13.1722 16.2838 13.1722C16.3338 13.1722 16.3819 13.1525 16.4178 13.1171L18.9461 10.5529C18.9809 10.5165 19.0004 10.4678 19.0004 10.4171C19.0004 10.3664 18.9809 10.3176 18.9461 10.2812H18.9272ZM11.7499 10.7022C11.6998 10.7022 11.6518 10.7224 11.6164 10.7583C11.5811 10.7942 11.5612 10.8428 11.5612 10.8936V12.5966L12.6933 14.0471L10.165 11.4829C10.1291 11.4476 10.081 11.4279 10.031 11.4279C9.98102 11.4279 9.93294 11.4476 9.89705 11.4829L8.65177 12.7153L8.42913 14.5332V10.8974C8.42815 10.8469 8.408 10.7988 8.37279 10.7632C8.33762 10.7275 8.29019 10.707 8.24045 10.706H6.4329L5.10083 11.8121L7.62913 9.24787C7.64679 9.23012 7.66086 9.20895 7.67045 9.18561C7.68003 9.1623 7.68494 9.13727 7.68494 9.11201C7.68494 9.08675 7.68003 9.06176 7.67045 9.03841C7.66086 9.01511 7.64679 8.99394 7.62913 8.97615L6.38762 7.69405L4.67064 7.52565H8.248C8.29803 7.52565 8.34603 7.50552 8.38143 7.46962C8.41679 7.43372 8.43668 7.38504 8.43668 7.33429V5.60442L7.3046 4.18454L9.8329 6.74874C9.86879 6.78406 9.91686 6.80381 9.96686 6.80381C10.0169 6.80381 10.0649 6.78406 10.1008 6.74874L11.3423 5.48578L11.5272 3.70997V7.33429C11.5272 7.38504 11.5471 7.43372 11.5825 7.46962C11.6179 7.50552 11.6659 7.52565 11.7159 7.52565H13.4971L14.848 6.42343L12.3197 8.98763C12.2849 9.02406 12.2654 9.07278 12.2654 9.12349C12.2654 9.17424 12.2849 9.22296 12.3197 9.25936L13.5574 10.5147L15.2971 10.7022H11.7499Z" fill="#005894"/>
</g>
<defs>
<clipPath id="clip0_13024_368733">
<rect width="20" height="22.963" fill="white"/>
</clipPath>
</defs>
</svg>
