<svg width="48" height="12" viewBox="0 0 48 12" fill="none" xmlns="http://www.w3.org/2000/svg">
<path fill-rule="evenodd" clip-rule="evenodd" d="M5.81663 5.04107C5.81013 5.03565 5.80486 5.0289 5.8013 5.02126C5.7977 5.01366 5.79585 5.00533 5.79585 4.99693C5.79585 4.98852 5.7977 4.98019 5.8013 4.97256C5.80486 4.96496 5.81013 4.9582 5.81663 4.95279L6.28885 4.48071L6.67595 4.0969L6.20756 4.48071H5.63079C5.61399 4.48075 5.59781 4.47437 5.58557 4.46298C5.57334 4.45154 5.56599 4.43592 5.56498 4.4193V3.22949L5.49921 3.82056L5.08889 4.22355C5.07674 4.23461 5.06083 4.24075 5.04434 4.24075C5.02785 4.24075 5.01197 4.23461 4.99982 4.22355L4.52369 3.75147L4.13659 3.36766L4.52369 3.83207V4.40395C4.52369 4.42022 4.51719 4.43584 4.50557 4.44735C4.49396 4.45887 4.47821 4.46535 4.46179 4.46535H3.26562L3.86175 4.53444L4.24885 4.93744C4.25535 4.94285 4.26062 4.9496 4.26418 4.9572C4.26778 4.96484 4.26964 4.97317 4.26964 4.98158C4.26964 4.98998 4.26778 4.99831 4.26418 5.00591C4.26062 5.01355 4.25535 5.0203 4.24885 5.02571L3.40111 5.86625L3.8695 5.48244H4.44627C4.46272 5.48244 4.47848 5.48889 4.49009 5.50045C4.5017 5.51196 4.50825 5.52758 4.50825 5.54385V6.76436L4.57792 6.1733L4.98434 5.76646C4.99649 5.75541 5.01236 5.74927 5.02885 5.74927C5.04534 5.74927 5.06125 5.75541 5.07337 5.76646L5.92498 6.61084L5.53788 6.14259V5.57456C5.53889 5.55794 5.54628 5.54228 5.55852 5.53088C5.57075 5.51944 5.58689 5.51311 5.60369 5.51315H6.80373L6.20756 5.4479L5.81663 5.04107Z" fill="#005894"/>
<path fill-rule="evenodd" clip-rule="evenodd" d="M8.94968 0.00537109H1.12258C0.825175 0.00636899 0.540232 0.123967 0.329922 0.33249C0.119612 0.541013 0.00100645 0.823533 0 1.11841V8.87517C0.00100645 9.17005 0.119612 9.45257 0.329922 9.66109C0.540232 9.86962 0.825175 9.98721 1.12258 9.98821H8.94968C9.24708 9.98721 9.53203 9.86962 9.74234 9.66109C9.95265 9.45257 10.0713 9.17005 10.0723 8.87517V1.11841C10.0713 0.823533 9.95265 0.541013 9.74234 0.33249C9.53203 0.123967 9.24708 0.00636899 8.94968 0.00537109ZM8.03226 5.46696L7.18064 6.3075C7.16849 6.31855 7.15262 6.32469 7.13613 6.32469C7.11964 6.32469 7.10377 6.31855 7.09161 6.3075L6.88258 6.10024V7.3668C6.88258 7.38308 6.87608 7.3987 6.86446 7.41021C6.85281 7.42173 6.83706 7.42821 6.82064 7.42821H5.62065C5.60385 7.42825 5.58766 7.42188 5.57543 7.41048C5.5632 7.39904 5.55581 7.38342 5.55484 7.3668V7.07127L4.6529 7.96554C4.64745 7.97199 4.64063 7.97717 4.63293 7.98074C4.62526 7.98431 4.6169 7.98616 4.60839 7.98616C4.59991 7.98616 4.59151 7.98431 4.58384 7.98074C4.57614 7.97717 4.56933 7.97199 4.56387 7.96554L3.71613 7.12501C3.70963 7.11959 3.70436 7.11284 3.7008 7.10524C3.6972 7.0976 3.69534 7.08927 3.69534 7.08087C3.69534 7.07246 3.6972 7.06413 3.7008 7.0565C3.70436 7.0489 3.70963 7.04214 3.71613 7.03673L3.92516 6.82947H2.64774C2.63133 6.82947 2.61557 6.82299 2.60396 6.81147C2.59235 6.79996 2.58581 6.78434 2.58581 6.76806V5.57442C2.58581 5.55815 2.59235 5.54253 2.60396 5.53101C2.61557 5.5195 2.63133 5.51301 2.64774 5.51301H2.94581L2.04 4.61874C2.02885 4.60669 2.02266 4.59095 2.02266 4.5746C2.02266 4.55825 2.02885 4.54252 2.04 4.53046L2.88 3.69376C2.89215 3.68271 2.90803 3.67657 2.92452 3.67657C2.94101 3.67657 2.95688 3.68271 2.96903 3.69376L3.18194 3.90486V2.63829C3.18194 2.62163 3.18832 2.60559 3.19982 2.59346C3.21136 2.58134 3.22711 2.574 3.24387 2.57305H4.44387C4.46063 2.574 4.47643 2.58134 4.48792 2.59346C4.49946 2.60559 4.50585 2.62163 4.50581 2.63829V2.92615L5.41161 2.03188C5.42373 2.02082 5.43964 2.01468 5.45613 2.01468C5.47262 2.01468 5.48853 2.02082 5.50065 2.03188L6.36387 2.86858C6.37037 2.87399 6.3756 2.88074 6.3792 2.88834C6.3828 2.89598 6.38466 2.90431 6.38466 2.91271C6.38466 2.92112 6.3828 2.92945 6.3792 2.93709C6.3756 2.94469 6.37037 2.95144 6.36387 2.95685L6.15484 3.16795H7.43226C7.44867 3.16795 7.46443 3.17443 7.47604 3.18595C7.48765 3.19746 7.49419 3.21308 7.49419 3.22936V4.41916C7.49419 4.43543 7.48765 4.45106 7.47604 4.46257C7.46443 4.47408 7.44867 4.48057 7.43226 4.48057H7.13806L8.04387 5.37868C8.05359 5.39211 8.05777 5.40869 8.0556 5.42508C8.05343 5.44147 8.04511 5.45644 8.03226 5.46696Z" fill="#005894"/>
<path d="M22.7158 0.581361L22.6384 1.86328C22.6113 2.30082 22.5842 2.67695 22.5532 3.0147C22.5068 3.54819 22.4526 4.82628 21.7558 4.82628H21.7287C21.6917 4.8272 21.6564 4.84194 21.6298 4.86754C21.6033 4.89317 21.5874 4.92775 21.5855 4.96445V5.78963C21.5845 5.8089 21.5874 5.82821 21.5941 5.84632C21.6008 5.86448 21.6112 5.88102 21.6246 5.89503C21.638 5.90907 21.6542 5.9202 21.6721 5.9278C21.69 5.93544 21.7093 5.93936 21.7287 5.93932H21.7907C22.0595 5.97451 22.333 5.93206 22.5781 5.817C22.8232 5.70193 23.0296 5.5192 23.1726 5.29068C23.3068 5.09402 23.4124 4.87951 23.4861 4.65356C23.5709 4.39449 23.6331 4.1287 23.672 3.85908C23.7184 3.56355 23.7571 3.24115 23.7842 2.88805C23.8113 2.53494 23.8423 2.15113 23.8694 1.73662L23.9042 1.1494H25.561V5.78196C25.561 5.80161 25.5648 5.82107 25.573 5.83911C25.5807 5.85711 25.5923 5.8733 25.607 5.88666C25.6213 5.90002 25.6388 5.91023 25.6573 5.91664C25.6763 5.92308 25.696 5.92554 25.7158 5.92397H26.699C26.7195 5.92565 26.74 5.92297 26.7594 5.9161C26.7788 5.90923 26.7962 5.89833 26.8109 5.88413C26.8256 5.86993 26.8368 5.85277 26.8446 5.83385C26.8519 5.81489 26.855 5.79458 26.8539 5.77428V0.431675C26.8523 0.375063 26.8395 0.319296 26.8159 0.267636C26.7927 0.216014 26.759 0.169534 26.7172 0.130923C26.6754 0.0923503 26.6262 0.062413 26.5724 0.0428772C26.519 0.0233414 26.4621 0.0145915 26.4048 0.017163H23.1416C23.0378 0.0205021 22.9388 0.0613397 22.8632 0.132037C22.7876 0.202735 22.7407 0.298379 22.7313 0.400971C22.7313 0.454704 22.7313 0.508437 22.7313 0.569846L22.7158 0.581361ZM12.5197 5.92397H14.7532C15.0111 5.94281 15.2701 5.90927 15.5144 5.82544C15.7587 5.74162 15.9832 5.60928 16.1742 5.43645C16.3652 5.26366 16.5185 5.05403 16.625 4.82044C16.7314 4.58682 16.7887 4.33416 16.7932 4.07785C16.7976 3.9649 16.7911 3.85183 16.7739 3.7401C16.7009 3.2958 16.4698 2.89211 16.1226 2.60207C15.7754 2.31203 15.335 2.15478 14.881 2.15881H13.3752V1.11101H15.9416C15.9628 1.11286 15.9841 1.11002 16.004 1.10269C16.0239 1.09539 16.0419 1.08377 16.0567 1.06872C16.0715 1.05367 16.0827 1.03552 16.0896 1.01564C16.0965 0.995719 16.0989 0.974571 16.0965 0.953654V0.186038C16.0965 0.0824098 16.0578 -0.00202773 15.9416 0.00181035H12.5584C12.5005 -0.00360134 12.4422 0.00315422 12.3871 0.0216154C12.332 0.0400765 12.2814 0.0698205 12.2387 0.108931C12.196 0.148002 12.1621 0.195594 12.1391 0.24856C12.1162 0.301525 12.1047 0.358676 12.1055 0.416324V5.50945C12.105 5.56368 12.1153 5.61753 12.1359 5.66777C12.1565 5.71805 12.1869 5.76377 12.2254 5.80234C12.2639 5.84087 12.3098 5.87146 12.3603 5.89234C12.4108 5.91322 12.465 5.92397 12.5197 5.92397ZM39.6551 5.74742V3.7708H41.068C41.3831 3.76769 41.6924 3.68679 41.9684 3.53538C42.244 3.38396 42.4775 3.16684 42.647 2.90363C42.817 2.64037 42.918 2.33935 42.9408 2.0277C42.964 1.71609 42.9083 1.40367 42.779 1.11869C42.671 0.875703 42.5111 0.658735 42.3106 0.482529C42.1105 0.306323 41.874 0.1751 41.6177 0.0977623C41.4048 0.0398841 41.1846 0.0127492 40.9635 0.017163H38.8074C38.699 0.0129027 38.5933 0.0505154 38.5124 0.122134C38.4315 0.193752 38.382 0.293735 38.3739 0.400971C38.3739 0.435514 38.3739 0.473895 38.3739 0.512276V5.78196C38.3739 5.80092 38.3777 5.81972 38.3851 5.83719C38.3924 5.85469 38.4037 5.8705 38.4172 5.88374C38.4308 5.89698 38.447 5.90739 38.4648 5.91429C38.483 5.92116 38.502 5.92447 38.5209 5.92397H39.5235C39.5495 5.92404 39.575 5.91733 39.5975 5.90451C39.6199 5.89173 39.6385 5.87327 39.6513 5.85104C39.659 5.81704 39.6606 5.78188 39.6551 5.74742ZM41.5906 1.90934C41.5906 2.11291 41.509 2.30815 41.3638 2.45212C41.2186 2.59608 41.022 2.67695 40.8164 2.67695H39.6551V1.14172H40.7622C40.8671 1.13439 40.9724 1.14832 41.0715 1.18267C41.171 1.21699 41.262 1.27099 41.3394 1.34138C41.4168 1.41177 41.4791 1.49705 41.5225 1.59204C41.5655 1.68707 41.5887 1.78978 41.5906 1.89398V1.90934ZM36.2951 4.71113L36.628 5.80499C36.6551 5.90478 36.7093 5.93932 36.7713 5.93932H37.8474C37.8699 5.94016 37.8923 5.93567 37.9128 5.92631C37.9333 5.9169 37.9515 5.90282 37.9655 5.88524C37.9794 5.86766 37.9887 5.84705 37.9933 5.8251C37.9976 5.80314 37.9968 5.78046 37.9906 5.75893L36.2255 0.493084C36.1442 0.235933 36.0203 0.0325157 35.7184 0.0325157H34.9442C34.8699 0.0260293 34.7948 0.038886 34.727 0.0698593C34.6593 0.100833 34.6004 0.148809 34.5571 0.209067C34.494 0.294157 34.4479 0.390607 34.4216 0.493084L32.6874 5.7359C32.68 5.75728 32.6777 5.78011 32.6812 5.80245C32.6843 5.82483 32.6932 5.84609 32.7064 5.86451C32.7195 5.8829 32.737 5.89787 32.7575 5.90823C32.7776 5.91855 32.8 5.92397 32.8229 5.92397H33.8487C33.8793 5.92796 33.9102 5.92182 33.937 5.90654C33.9633 5.89127 33.9842 5.8677 33.9958 5.83953C34.0055 5.81581 34.0132 5.79144 34.019 5.76661L34.3519 4.69578L36.2951 4.71113ZM34.6539 3.66334L34.9751 2.59635L35.3003 1.39503H35.3506L35.6642 2.59635L35.9893 3.66334H34.6539ZM31.0732 2.79593V2.75371C31.2555 2.64214 31.4104 2.4913 31.5261 2.31233C31.6558 2.12319 31.7464 1.9106 31.7932 1.68673L32.1803 0.182201C32.1846 0.161628 32.1838 0.140366 32.1784 0.120062C32.173 0.0997971 32.1633 0.0809511 32.1493 0.0650614C32.1354 0.0491334 32.1184 0.0365838 32.0986 0.0282551C32.0793 0.0199649 32.0584 0.0161651 32.0371 0.017163H31.139C31.1073 0.0100626 31.074 0.0100626 31.0422 0.017163C31.0237 0.0272188 31.0074 0.0414571 30.9954 0.0588053C30.9834 0.0761534 30.9757 0.0960733 30.9726 0.116952L30.5855 1.53704C30.5506 1.68373 30.4887 1.8229 30.4035 1.94772C30.3381 2.04213 30.2522 2.12081 30.1519 2.178C30.0652 2.22575 29.9711 2.25822 29.8732 2.27395C29.7846 2.2832 29.6948 2.2832 29.6061 2.27395H28.9364V0.155334C28.9353 0.118335 28.9198 0.0831784 28.8931 0.0573865C28.8664 0.0315946 28.8308 0.017163 28.7932 0.017163H27.7945C27.7755 0.0155894 27.7566 0.0178534 27.7384 0.0238408C27.7206 0.0298666 27.7039 0.0394244 27.69 0.0520133C27.6757 0.0646022 27.6644 0.0799154 27.6563 0.0970332C27.6482 0.114113 27.6439 0.13265 27.6435 0.151495V5.78963C27.6447 5.80829 27.6493 5.82656 27.6575 5.84344C27.6656 5.86029 27.6768 5.87538 27.6908 5.88785C27.7051 5.90032 27.7213 5.90996 27.7391 5.91614C27.757 5.92235 27.7755 5.925 27.7945 5.92397H28.7816C28.8006 5.92554 28.8199 5.92328 28.8381 5.91733C28.8563 5.91138 28.8733 5.90186 28.8877 5.88931C28.9024 5.8768 28.914 5.86148 28.9225 5.84436C28.9306 5.82725 28.9357 5.80863 28.9364 5.78963V3.28721H29.6216C29.7911 3.28072 29.9607 3.29884 30.1248 3.34094C30.2568 3.37683 30.3753 3.45021 30.4655 3.55203C30.5688 3.68264 30.6439 3.83287 30.6861 3.99341L31.2087 5.82418C31.2172 5.85319 31.235 5.87868 31.2594 5.89672C31.2838 5.91476 31.3136 5.92431 31.3442 5.92397H32.3313C32.3533 5.92573 32.375 5.92235 32.3955 5.91414C32.4157 5.90589 32.4339 5.89303 32.4482 5.87657C32.4625 5.8601 32.4726 5.84053 32.478 5.81942C32.483 5.79831 32.4834 5.77628 32.4784 5.75509L31.9519 3.80151C31.9229 3.68433 31.8865 3.569 31.8435 3.45608C31.8064 3.35706 31.7568 3.26295 31.6964 3.1759C31.6302 3.08951 31.5505 3.01432 31.4603 2.95329C31.3438 2.8786 31.2176 2.82046 31.0848 2.78058L31.0732 2.79593ZM21.2913 5.74742V4.9798C21.2918 4.96084 21.2885 4.94196 21.2815 4.92426C21.2746 4.90661 21.2641 4.89049 21.2507 4.8769C21.2374 4.86331 21.2214 4.85249 21.2038 4.84512C21.1862 4.83775 21.1672 4.83395 21.1481 4.83395H18.8255C18.7677 4.83357 18.7106 4.82144 18.6578 4.7983C18.6049 4.77515 18.5574 4.74145 18.5182 4.69935C18.479 4.65725 18.4489 4.60762 18.4299 4.55354C18.4108 4.49943 18.4032 4.44205 18.4074 4.3849V3.23731H20.8616C20.8804 3.23781 20.8991 3.23466 20.9167 3.22798C20.9343 3.22131 20.9504 3.21129 20.9641 3.19843C20.9777 3.18561 20.9887 3.17022 20.9963 3.15318C21.004 3.13618 21.0082 3.11779 21.0087 3.09914V2.3085C21.0087 2.22406 20.9507 2.16649 20.8461 2.16649H18.4074V1.53704C18.4069 1.48227 18.4174 1.42796 18.4381 1.37722C18.4589 1.32648 18.4897 1.28035 18.5285 1.24143C18.5674 1.20255 18.6136 1.17166 18.6646 1.15059C18.7156 1.12951 18.7703 1.11869 18.8255 1.11869H21.1481C21.1676 1.11973 21.187 1.11685 21.2053 1.11017C21.2236 1.10349 21.2403 1.09321 21.2544 1.07993C21.2686 1.06661 21.2798 1.0506 21.2875 1.03287C21.2951 1.0151 21.2991 0.995988 21.2991 0.976683V0.159172C21.2992 0.139137 21.295 0.119332 21.2869 0.101024C21.2787 0.0827167 21.2668 0.0663279 21.2518 0.0528946C21.2368 0.0394997 21.2191 0.0293683 21.1999 0.0232274C21.1807 0.0170481 21.1604 0.0150137 21.1403 0.017163H18.7403C18.3186 0.0181225 17.914 0.183082 17.6136 0.476619C17.3132 0.770155 17.141 1.16882 17.1339 1.58694V4.3849C17.143 4.79323 17.3121 5.18199 17.6056 5.46862C17.899 5.75528 18.2936 5.91721 18.7055 5.92013H21.152C21.1712 5.9212 21.1905 5.91829 21.2086 5.91157C21.2267 5.90489 21.2432 5.89453 21.257 5.88117C21.2708 5.86782 21.2817 5.85177 21.2889 5.83404C21.2961 5.81627 21.2996 5.79723 21.2991 5.77812L21.2913 5.74742ZM45.9919 1.14172V5.78963C45.9915 5.80848 45.9873 5.82702 45.9791 5.8441C45.9714 5.86121 45.9598 5.87653 45.9459 5.88912C45.9315 5.9017 45.9149 5.91126 45.8971 5.91725C45.8789 5.92327 45.8599 5.92554 45.841 5.92397H44.8539C44.8155 5.92608 44.7776 5.91322 44.749 5.88812C44.7199 5.86298 44.7021 5.82763 44.699 5.78963V1.11869H43.1506C43.132 1.11769 43.1135 1.11305 43.0964 1.10499C43.0794 1.09693 43.0643 1.08565 43.0515 1.07171C43.0391 1.05782 43.0295 1.04158 43.0229 1.02397C43.0167 1.00635 43.014 0.98766 43.0151 0.969006V0.166848C43.0136 0.14808 43.0159 0.129197 43.0221 0.111311C43.0279 0.0934641 43.0376 0.0770371 43.0504 0.0629897C43.0631 0.0489807 43.0786 0.037696 43.0957 0.0297895C43.1131 0.0219214 43.1317 0.0176236 43.1506 0.017163H47.5635C47.5825 0.0181225 47.6007 0.0228042 47.6177 0.0308642C47.6348 0.0389241 47.6502 0.0502083 47.6626 0.0641405C47.6754 0.0780343 47.6851 0.0942698 47.6913 0.111887C47.6975 0.129503 47.7002 0.148195 47.699 0.166848V0.969006C47.7002 1.00643 47.6866 1.04285 47.6615 1.07072C47.6363 1.09858 47.6011 1.11574 47.5635 1.11869L45.9919 1.14172ZM15.4384 4.02796C15.443 4.13565 15.4246 4.24308 15.3846 4.34329C15.3445 4.4435 15.2836 4.5342 15.2058 4.6095C15.128 4.68484 15.0351 4.74307 14.9331 4.78041C14.8312 4.81776 14.7224 4.83338 14.6139 4.82628H13.3791V3.23731H14.6216C14.7278 3.22994 14.8343 3.2443 14.9346 3.27957C15.0349 3.3148 15.1267 3.37019 15.2044 3.44223C15.2822 3.51427 15.3441 3.60139 15.3863 3.69819C15.4286 3.79502 15.4503 3.89942 15.45 4.00493L15.4384 4.02796Z" fill="#005894"/>
<path fill-rule="evenodd" clip-rule="evenodd" d="M47.0451 9.15942C47.0466 9.08427 47.0187 9.01138 46.9676 8.956C46.9382 8.92614 46.9022 8.90307 46.8627 8.88848C46.8233 8.8739 46.7811 8.8681 46.7393 8.87156H46.236V9.45111H46.7431C46.795 9.45257 46.8469 9.44205 46.8941 9.4204C46.9313 9.40344 46.9645 9.37857 46.9909 9.34748C47.0133 9.31785 47.0292 9.28385 47.0373 9.24769C47.0408 9.21706 47.0408 9.1862 47.0373 9.15558L47.0451 9.15942ZM45.876 9.92319C45.8362 9.92883 45.7959 9.92553 45.7576 9.91356C45.7196 9.90162 45.6844 9.88128 45.6554 9.85411C45.6182 9.80149 45.6004 9.73778 45.6051 9.67372V7.75468C45.6051 7.70095 45.636 7.67408 45.698 7.67408H46.1315C46.1741 7.67408 46.2012 7.67408 46.2128 7.67408C46.2202 7.68314 46.2256 7.69358 46.2291 7.70478C46.2325 7.71599 46.2333 7.72773 46.2322 7.73933V8.36493H46.7702C46.9413 8.35607 47.112 8.38627 47.2696 8.45321C47.3791 8.499 47.4747 8.57165 47.5483 8.6643C47.6091 8.73884 47.6505 8.82723 47.6683 8.92145C47.6822 8.99231 47.69 9.06419 47.6915 9.13639C47.6927 9.24316 47.6718 9.34905 47.6296 9.44727C47.5854 9.539 47.5239 9.62121 47.4476 9.68907C47.3687 9.76069 47.2765 9.81669 47.1767 9.85411C47.0691 9.89433 46.9549 9.91513 46.8399 9.91552L45.876 9.92319ZM44.7805 7.6664C44.8173 7.66157 44.8545 7.66452 44.8897 7.67511C44.9253 7.68571 44.9578 7.70367 44.9857 7.72781C45.0279 7.78538 45.0473 7.8565 45.0399 7.92739V9.84643C45.0399 9.88097 45.0399 9.904 45.0399 9.91552C45.0144 9.922 44.988 9.922 44.9625 9.91552H44.5251C44.4987 9.92457 44.4701 9.92457 44.4438 9.91552C44.4391 9.90458 44.4368 9.89283 44.4368 9.88097C44.4368 9.86911 44.4391 9.85737 44.4438 9.84643V8.19606H43.9096V8.41867C43.8941 8.67455 43.8747 8.88948 43.8515 9.06346C43.8333 9.22263 43.7942 9.3788 43.7354 9.52787C43.6858 9.64946 43.6061 9.75651 43.5031 9.83876C43.387 9.92669 43.2558 9.99301 43.116 10.0345C43.0885 10.0452 43.0584 10.0452 43.0309 10.0345C43.0119 10.0192 42.9972 9.99938 42.9883 9.97693L42.8722 9.68523C42.8648 9.65886 42.8648 9.631 42.8722 9.60463C42.8722 9.60463 42.8954 9.57009 42.9341 9.5509C43.0022 9.52154 43.0661 9.48277 43.1238 9.43576C43.1753 9.38341 43.2151 9.32054 43.2399 9.25153C43.2763 9.14725 43.2995 9.03898 43.3096 8.92913C43.3096 8.7948 43.3444 8.62208 43.3599 8.40331L43.387 7.93507C43.3851 7.86356 43.4098 7.7939 43.4567 7.73933C43.5136 7.69492 43.586 7.67427 43.658 7.68176L44.7805 7.6664ZM41.8928 8.7948C41.8936 8.70598 41.8855 8.61732 41.8696 8.52997C41.8576 8.45712 41.8324 8.387 41.796 8.32271C41.7624 8.26794 41.7159 8.22193 41.6605 8.18838C41.5704 8.14025 41.4658 8.1262 41.3664 8.14877C41.2665 8.17138 41.1786 8.2291 41.1186 8.3112C41.0381 8.45532 40.999 8.61867 41.0064 8.78328C40.9967 8.95289 41.0315 9.12207 41.107 9.27456C41.1426 9.32983 41.1929 9.37442 41.2522 9.40352C41.3114 9.43257 41.3776 9.44504 41.4438 9.43959C41.5154 9.44213 41.5866 9.42486 41.6489 9.3897C41.707 9.35842 41.755 9.31198 41.7883 9.25537C41.8274 9.19185 41.8537 9.12149 41.8657 9.04811C41.8804 8.97219 41.8882 8.89513 41.8889 8.81783L41.8928 8.7948ZM42.547 8.7948C42.5675 9.11013 42.4696 9.4219 42.2722 9.66988C42.1649 9.77919 42.0349 9.86374 41.8909 9.91747C41.7473 9.97121 41.5932 9.99282 41.4399 9.98076C41.2878 9.99385 41.1345 9.9727 40.9916 9.91886C40.8488 9.86501 40.7203 9.77992 40.6154 9.66988C40.4292 9.41975 40.3375 9.11278 40.356 8.80247C40.3541 8.63433 40.3804 8.46706 40.4334 8.30736C40.4772 8.16562 40.5511 8.03478 40.6502 7.92355C40.7454 7.82303 40.8616 7.74443 40.9909 7.69327C41.136 7.63627 41.2913 7.6076 41.4476 7.60883C41.5994 7.5982 41.7515 7.62088 41.8936 7.67527C42.0353 7.72969 42.1634 7.81444 42.2683 7.92355C42.47 8.17226 42.5683 8.48806 42.5431 8.80631L42.547 8.7948ZM39.307 8.7948C39.3093 8.69516 39.2973 8.59572 39.2722 8.49926C39.2528 8.42768 39.2187 8.36094 39.1715 8.30352C39.1247 8.25681 39.0678 8.22135 39.0051 8.1999C38.9331 8.18047 38.8587 8.17142 38.7844 8.17303H38.6257C38.568 8.17928 38.5111 8.19088 38.4554 8.20757V9.38202C38.5216 9.39895 38.5889 9.41177 38.6567 9.4204H38.8154C38.8816 9.42252 38.9478 9.41062 39.0093 9.38548C39.0705 9.36034 39.1258 9.32253 39.1715 9.27456C39.2691 9.13708 39.3159 8.9702 39.3031 8.80247L39.307 8.7948ZM38.4554 10.7407C38.4631 10.7604 38.4631 10.7824 38.4554 10.8021C38.4314 10.8083 38.4058 10.8083 38.3818 10.8021H37.9135C37.8906 10.8071 37.8666 10.8071 37.8438 10.8021C37.8438 10.8021 37.8244 10.7714 37.8244 10.7407V7.93891C37.8194 7.91484 37.8194 7.89005 37.8244 7.86598C37.8438 7.84011 37.8689 7.81908 37.898 7.80457C38.0458 7.73948 38.2022 7.69553 38.3625 7.67408C38.5251 7.64871 38.6896 7.63585 38.8541 7.6357C39.0314 7.63044 39.2083 7.6618 39.3728 7.72781C39.504 7.78204 39.6198 7.86775 39.7096 7.97729C39.7994 8.08993 39.8629 8.22108 39.8954 8.36109C39.9349 8.51013 39.9546 8.66373 39.9535 8.81783C39.9531 8.97085 39.9322 9.12315 39.8915 9.27072C39.8547 9.4092 39.7916 9.53942 39.7057 9.65453C39.6194 9.76222 39.5095 9.84889 39.3844 9.90784C39.2424 9.97221 39.0875 10.0037 38.9315 9.99995C38.8502 10.0041 38.7689 10.0041 38.6876 9.99995C38.604 9.99178 38.5212 9.97765 38.4399 9.95773L38.4554 10.7407ZM36.6322 8.91378H36.2876H36.1599C36.1154 8.91838 36.072 8.93139 36.0322 8.95216C35.9915 8.97446 35.9571 9.00605 35.9315 9.04427C35.9048 9.09513 35.8913 9.15193 35.8928 9.20931C35.8889 9.25061 35.8967 9.29214 35.9153 9.32936C35.9338 9.36659 35.9621 9.39807 35.9973 9.4204C36.0821 9.46305 36.1769 9.48289 36.2722 9.47797H36.3418H36.4347H36.5354L36.6322 9.45111V8.91378ZM37.2593 9.65837C37.2658 9.69003 37.2658 9.72265 37.2593 9.75432C37.2415 9.7859 37.2144 9.81135 37.1818 9.82724C37.1137 9.85963 37.0421 9.88535 36.9689 9.904C36.8915 9.92193 36.8141 9.93728 36.7367 9.95006L36.4967 9.97693H36.2683C36.1038 9.98103 35.9396 9.96165 35.7805 9.91935C35.6683 9.8908 35.5626 9.83987 35.4709 9.76967C35.3965 9.70895 35.3404 9.62935 35.3083 9.53938C35.2754 9.44957 35.2584 9.35477 35.258 9.2592C35.2564 9.15404 35.2762 9.04968 35.316 8.95216C35.3536 8.85978 35.4116 8.7771 35.4864 8.71036C35.5673 8.63655 35.664 8.58148 35.7689 8.54916C35.9002 8.50798 36.0376 8.48852 36.1754 8.49159H36.6515V8.4225C36.6573 8.38435 36.6573 8.34551 36.6515 8.30736C36.6438 8.26952 36.6248 8.23482 36.5973 8.20757C36.5644 8.17894 36.5261 8.15679 36.4851 8.14232C36.4208 8.12371 36.3542 8.11465 36.2876 8.11546H36.1405H35.978L35.8154 8.14232L35.6799 8.17687C35.6532 8.18489 35.6249 8.18489 35.5986 8.17687C35.5835 8.16113 35.5738 8.1409 35.5715 8.1193L35.5018 7.81992C35.4949 7.81129 35.4902 7.80089 35.4887 7.78987C35.4871 7.77886 35.4887 7.76761 35.4929 7.75736C35.4972 7.74712 35.5045 7.73825 35.5135 7.73169C35.5224 7.72512 35.5332 7.72113 35.5444 7.72014C35.6772 7.67254 35.8146 7.63907 35.9547 7.62034C36.0956 7.60058 36.2381 7.59033 36.3805 7.58964C36.6271 7.56957 36.8725 7.64065 37.0696 7.78922C37.1462 7.86663 37.2058 7.95936 37.2438 8.06126C37.2817 8.16317 37.2976 8.2719 37.2902 8.38029L37.2593 9.65837ZM34.7238 9.85411C34.7238 9.88865 34.7238 9.90784 34.7238 9.91935C34.6974 9.92841 34.6688 9.92841 34.6425 9.91935H34.1702C34.1122 9.91935 34.0812 9.89249 34.0812 9.83492V7.5052H32.9199V9.86178C32.9284 9.88274 32.9284 9.90607 32.9199 9.92703C32.8947 9.93647 32.8673 9.93647 32.8425 9.92703H32.3664C32.3044 9.92703 32.2734 9.90016 32.2734 9.84259V7.22502C32.2676 7.14542 32.2913 7.06643 32.3393 7.00242C32.3675 6.97651 32.4016 6.95693 32.438 6.94504C32.4747 6.93314 32.5138 6.92915 32.5522 6.93333H34.4876C34.5267 6.9288 34.5662 6.93264 34.6034 6.94458C34.6409 6.95647 34.6754 6.9762 34.7044 7.00242C34.7513 7.06693 34.7729 7.14588 34.7664 7.22502L34.7238 9.85411ZM31.1393 8.19606V9.85795C31.1482 9.88143 31.1482 9.90738 31.1393 9.93087C31.1125 9.93682 31.0847 9.93682 31.058 9.93087H30.6283C30.5625 9.93087 30.5276 9.90016 30.5276 9.84259V8.19606H29.9005C29.8425 8.19606 29.8154 8.16535 29.8154 8.1001V7.78922C29.8154 7.747 29.8154 7.72014 29.8154 7.70862C29.8251 7.70098 29.8363 7.69534 29.8483 7.69204C29.8603 7.68874 29.8727 7.68786 29.8851 7.68943H31.7586C31.7834 7.68705 31.8082 7.69388 31.8283 7.70862C31.8283 7.70862 31.8283 7.747 31.8283 7.78922V8.1001C31.8283 8.16535 31.8012 8.19606 31.7431 8.19606H31.1393ZM28.5844 8.15C28.5298 8.14912 28.476 8.15956 28.4261 8.18074C28.3762 8.20189 28.3309 8.23329 28.2941 8.27282C28.2186 8.3629 28.1737 8.47443 28.1664 8.59138H28.9754C28.9816 8.5327 28.9816 8.47351 28.9754 8.41483C28.9642 8.36516 28.9433 8.31819 28.9135 8.27666C28.8821 8.23793 28.8422 8.2065 28.7973 8.18454C28.7323 8.15791 28.6622 8.14612 28.5922 8.15H28.5844ZM28.5844 7.63186C28.7242 7.61916 28.8651 7.63508 28.9982 7.67865C29.1314 7.72225 29.2541 7.79252 29.3586 7.88517C29.448 7.98147 29.5165 8.09469 29.5607 8.21805C29.6044 8.34144 29.6226 8.47236 29.6141 8.60289C29.6265 8.71289 29.5944 8.82331 29.5251 8.90994C29.4929 8.93815 29.4558 8.9598 29.4151 8.97361C29.3745 8.98743 29.3315 8.99319 29.2889 8.99054H28.1586C28.1598 9.06949 28.1753 9.14752 28.2051 9.22082C28.2314 9.27701 28.2697 9.32679 28.3173 9.36667C28.3657 9.40279 28.4211 9.42889 28.4799 9.44343C28.5461 9.45606 28.6134 9.46251 28.6812 9.46262C28.7671 9.46331 28.8531 9.45299 28.9367 9.43192C29.0191 9.41503 29.0996 9.38932 29.1767 9.35516C29.2003 9.34633 29.2266 9.34633 29.2502 9.35516C29.2665 9.36299 29.2789 9.37677 29.2851 9.39354L29.4244 9.70442C29.4287 9.71336 29.431 9.72323 29.431 9.73321C29.431 9.74319 29.4287 9.75305 29.4244 9.76199C29.4132 9.78099 29.3969 9.79684 29.378 9.80805C29.2591 9.8799 29.1279 9.92933 28.9909 9.9539C28.8639 9.98253 28.7342 9.99796 28.6038 9.99995C28.4516 10.0129 28.2987 9.9947 28.1544 9.94653C28.01 9.89832 27.8768 9.82114 27.7638 9.71977C27.5598 9.47222 27.4611 9.15554 27.4889 8.83702C27.4866 8.66507 27.5129 8.49397 27.5664 8.33039C27.6116 8.18926 27.6856 8.05869 27.7831 7.94658C27.8756 7.84388 27.991 7.76374 28.1199 7.71246C28.2662 7.65489 28.423 7.62748 28.5805 7.63186H28.5844ZM25.5999 9.85795C25.6088 9.88143 25.6088 9.90738 25.5999 9.93087C25.5732 9.93682 25.5453 9.93682 25.5186 9.93087H25.0618C24.9999 9.93087 24.9651 9.90016 24.9651 9.84259V7.77003C24.9651 7.7163 24.9999 7.68943 25.0618 7.68943H25.4954C25.5217 7.68164 25.55 7.68164 25.5767 7.68943C25.5852 7.71039 25.5852 7.73372 25.5767 7.75468V8.49159H26.3857V7.77003C26.3857 7.7163 26.4167 7.68943 26.4825 7.68943H26.916C26.9586 7.68943 26.9857 7.68943 26.9973 7.68943C27.0089 7.68943 26.9973 7.72014 26.9973 7.75468V9.84259C26.9973 9.88097 26.9973 9.904 26.9973 9.91552C26.9706 9.92235 26.9427 9.92235 26.916 9.91552H26.4941C26.4283 9.91552 26.3973 9.88481 26.3973 9.82724V8.99438H25.5883L25.5999 9.85795ZM23.8347 8.80247C23.837 8.70284 23.8252 8.60339 23.7999 8.50694C23.7807 8.43536 23.7464 8.36862 23.6992 8.3112C23.6525 8.26449 23.5955 8.22903 23.5328 8.20757C23.4609 8.18815 23.3866 8.17909 23.3121 8.18071H23.1534C23.0956 8.18658 23.0386 8.19817 22.9831 8.21525V9.3897C23.0492 9.40697 23.1165 9.41979 23.1844 9.42808H23.3431C23.4095 9.43019 23.4756 9.41829 23.537 9.39315C23.5984 9.36802 23.6537 9.33021 23.6992 9.28223C23.7972 9.14199 23.8437 8.97262 23.8308 8.80247H23.8347ZM22.9831 10.7484C22.9891 10.7684 22.9891 10.7898 22.9831 10.8098C22.9577 10.8158 22.9311 10.8158 22.9057 10.8098H22.4605C22.4376 10.8152 22.4137 10.8152 22.3908 10.8098C22.3821 10.8023 22.3755 10.7927 22.3714 10.782C22.3673 10.7713 22.3661 10.7597 22.3676 10.7484V7.94658C22.3624 7.92256 22.3624 7.89769 22.3676 7.87366C22.387 7.84779 22.4122 7.82676 22.4412 7.81225C22.5888 7.74666 22.7453 7.70267 22.9057 7.68176C23.0682 7.65623 23.2326 7.64337 23.3973 7.64337C23.5748 7.63812 23.7514 7.66947 23.916 7.73549C24.0473 7.78972 24.163 7.87542 24.2528 7.98496C24.3426 8.09761 24.4061 8.22876 24.4386 8.36877C24.475 8.5183 24.4932 8.67167 24.4928 8.8255C24.4936 8.97833 24.4742 9.13067 24.4347 9.2784C24.3984 9.41776 24.3337 9.54833 24.2451 9.6622C24.1611 9.77067 24.0523 9.85752 23.9276 9.91552C23.7841 9.97954 23.6281 10.011 23.4708 10.0076C23.3909 10.0117 23.3108 10.0117 23.2308 10.0076C23.1473 9.99976 23.0645 9.98564 22.9831 9.96541V10.7484ZM20.8928 8.15C20.8384 8.14912 20.7844 8.15956 20.7344 8.18074C20.6844 8.20189 20.6394 8.23329 20.6024 8.27282C20.5257 8.36255 20.4797 8.47405 20.4708 8.59138H21.2837C21.2898 8.5327 21.2898 8.47351 21.2837 8.41483C21.2713 8.36486 21.249 8.31788 21.2179 8.27666C21.1882 8.2362 21.1481 8.20442 21.1018 8.18454C21.0349 8.1556 20.9617 8.14371 20.8889 8.15H20.8928ZM20.8928 7.63186C21.0324 7.61939 21.1732 7.63543 21.3063 7.67899C21.4395 7.72255 21.5622 7.79271 21.667 7.88517C21.7563 7.98147 21.825 8.09469 21.8689 8.21805C21.9128 8.34144 21.931 8.47236 21.9224 8.60289C21.9349 8.71289 21.9029 8.82331 21.8334 8.90994C21.7685 8.96651 21.6836 8.99549 21.5973 8.99054H20.4553C20.4565 9.06949 20.4722 9.14752 20.5018 9.22082C20.5266 9.27678 20.5637 9.32656 20.6102 9.36667C20.6586 9.40279 20.7139 9.42889 20.7728 9.44343C20.8391 9.45587 20.9065 9.46232 20.9741 9.46262C21.0602 9.46381 21.1462 9.45349 21.2295 9.43192C21.3135 9.41561 21.3953 9.38985 21.4734 9.35516C21.4971 9.34633 21.5232 9.34633 21.547 9.35516C21.5631 9.36299 21.5756 9.37677 21.5818 9.39354L21.7212 9.70442C21.7283 9.72296 21.7283 9.74346 21.7212 9.76199C21.7098 9.78099 21.6939 9.79684 21.6747 9.80805C21.5558 9.8799 21.4246 9.92933 21.2876 9.9539C21.1605 9.98253 21.0308 9.99796 20.9005 9.99995C20.7486 10.0129 20.5956 9.9947 20.4511 9.94653C20.3066 9.89832 20.1737 9.82114 20.0605 9.71977C19.8565 9.47222 19.7579 9.15554 19.7857 8.83702C19.7835 8.66507 19.8096 8.49397 19.8631 8.33039C19.9068 8.18853 19.9807 8.05766 20.0799 7.94658C20.1724 7.84388 20.2877 7.76374 20.4166 7.71246C20.5631 7.65489 20.7198 7.62748 20.8773 7.63186H20.8928ZM18.9921 8.19606V9.85795C18.9921 9.89633 18.9921 9.91935 18.9728 9.93087C18.9474 9.93735 18.9207 9.93735 18.8953 9.93087H18.4657C18.3999 9.93087 18.365 9.90016 18.365 9.84259V8.19606H17.7495C17.6915 8.19606 17.6644 8.16535 17.6644 8.1001V7.78922C17.6644 7.747 17.6644 7.72014 17.6644 7.70862C17.6644 7.69711 17.6953 7.68943 17.7341 7.68943H19.6076C19.6324 7.68705 19.6573 7.69388 19.6773 7.70862C19.6773 7.70862 19.6773 7.747 19.6773 7.78922V8.1001C19.6773 8.16535 19.6502 8.19606 19.5921 8.19606H18.9921ZM15.8953 9.85795C15.8953 9.89633 15.8953 9.91935 15.876 9.93087C15.8493 9.9377 15.8214 9.9377 15.7947 9.93087H15.365C15.2992 9.93087 15.2682 9.90016 15.2682 9.84259V7.77003C15.2682 7.7163 15.2992 7.68943 15.365 7.68943H15.7947C15.8373 7.68943 15.8644 7.68943 15.876 7.68943C15.8876 7.68943 15.8953 7.72014 15.8953 7.75468V8.49159H16.7082V7.77003C16.7082 7.7163 16.7392 7.68943 16.8012 7.68943H17.2386C17.2637 7.68095 17.2909 7.68095 17.316 7.68943C17.3234 7.69849 17.3289 7.70893 17.3322 7.72014C17.3356 7.73134 17.3366 7.74309 17.3353 7.75468V9.84259C17.3384 9.86846 17.3314 9.89448 17.316 9.91552C17.2906 9.922 17.264 9.922 17.2386 9.91552H16.8012C16.7889 9.91736 16.7763 9.91636 16.7645 9.91264C16.7526 9.90892 16.7418 9.90254 16.7328 9.89398C16.7238 9.88546 16.717 9.87502 16.7127 9.86347C16.7085 9.85188 16.7069 9.83948 16.7082 9.82724V8.99438H15.8953V9.85795ZM13.9908 7.93891L13.6037 8.5837L12.8721 9.75816L12.8024 9.85795C12.7834 9.88013 12.7612 9.89951 12.7366 9.91552C12.7113 9.92903 12.6838 9.93808 12.6553 9.94238H12.547H12.3728C12.3316 9.94776 12.2897 9.94327 12.2506 9.92922C12.2115 9.91521 12.1764 9.89207 12.1482 9.86178C12.1072 9.7963 12.0869 9.72008 12.0902 9.64301V7.01393C12.0902 6.9602 12.1212 6.93333 12.1831 6.93333H12.6476C12.6863 6.93333 12.7134 6.93333 12.7212 6.93333C12.7288 6.9544 12.7288 6.97751 12.7212 6.99858V8.91762H12.7482L13.1353 8.31504L13.8863 7.09453C13.9058 7.06002 13.9291 7.02782 13.956 6.99858C13.9726 6.97447 13.9936 6.95363 14.0179 6.93717C14.0425 6.92204 14.0704 6.91287 14.0992 6.9103H14.2076H14.3818C14.4624 6.90209 14.5429 6.92554 14.6063 6.97555C14.6505 7.04536 14.6709 7.12746 14.6644 7.20967V9.83876C14.6644 9.89633 14.6334 9.92319 14.5753 9.92319H14.107C14.082 9.93263 14.0545 9.93263 14.0295 9.92319C14.0211 9.90224 14.0211 9.8789 14.0295 9.85795V7.93891H13.9908Z" fill="#005894"/>
</svg>
