<svg width="38" height="9" viewBox="0 0 38 9" fill="none" xmlns="http://www.w3.org/2000/svg">
<g clip-path="url(#clip0_13024_368758)">
<path d="M0.265625 8.59663C0.28875 8.2047 0.315212 7.56661 0.315212 6.9771V0.197754H1.79851V3.62792H1.82164C2.02709 3.32733 2.30865 3.08421 2.63874 2.92242C2.96884 2.76059 3.33613 2.68558 3.70468 2.70478C5.13843 2.70478 6.1658 3.87732 6.15259 5.61994C6.15259 7.68969 4.81464 8.71971 3.48661 8.71971C3.1135 8.73934 2.74218 8.65671 2.41423 8.48109C2.08632 8.30547 1.81477 8.04375 1.63 7.72532H1.6036L1.53092 8.59015L0.265625 8.59663ZM1.79851 6.21916C1.79696 6.3346 1.80915 6.44981 1.83482 6.5625C1.9078 6.85227 2.07753 7.10977 2.31698 7.29408C2.55642 7.47838 2.85186 7.57885 3.15625 7.57957C4.08455 7.57957 4.6528 6.8443 4.6528 5.68796C4.6528 4.67089 4.15727 3.84169 3.1695 3.84169C2.85962 3.84953 2.56128 3.95866 2.32187 4.1517C2.08246 4.34478 1.91569 4.61074 1.84807 4.90734C1.8191 5.03172 1.8036 5.15873 1.80182 5.28631L1.79851 6.21916Z" fill="#E36F10"/>
<path d="M8.84572 6.12516C8.88206 7.1649 9.71125 7.61513 10.6528 7.61513C11.2074 7.6299 11.76 7.54199 12.2814 7.356L12.4995 8.36011C11.8446 8.60398 11.1484 8.72379 10.4479 8.71317C8.54179 8.71317 7.42188 7.56654 7.42188 5.79802C7.42188 4.20116 8.41295 2.69824 10.2927 2.69824C12.1724 2.69824 12.8265 4.23679 12.8265 5.50327C12.8277 5.7094 12.8112 5.91527 12.7769 6.11869L8.84572 6.12516ZM11.4258 5.1081C11.4258 4.57366 11.1979 3.69911 10.2068 3.69911C9.2917 3.69911 8.90518 4.51535 8.84572 5.1081H11.4258Z" fill="#E36F10"/>
<path d="M14.5078 0.732199C15.2578 0.610411 16.0173 0.55512 16.7774 0.567008C17.8609 0.567008 18.6571 0.790503 19.1757 1.21482C19.4324 1.43316 19.6366 1.70424 19.7743 2.00878C19.9118 2.31331 19.9795 2.64386 19.9719 2.97687C19.9891 3.30971 19.9355 3.64246 19.815 3.95409C19.6947 4.26572 19.5094 4.54946 19.2715 4.7875C18.6835 5.36729 17.7519 5.63937 16.7047 5.63937C16.4625 5.64397 16.2204 5.62771 15.9812 5.59079V8.59663H14.5078V0.732199ZM15.9812 4.44416C16.2189 4.49313 16.462 4.5127 16.7047 4.50246C17.8147 4.50246 18.4886 3.97126 18.4886 3.03841C18.4886 2.10556 17.8609 1.678 16.8368 1.678C16.5499 1.67208 16.2631 1.69598 15.9812 1.74926V4.44416Z" fill="black"/>
<path d="M24.6697 8.59634L24.5739 7.94853H24.5375C24.3264 8.19817 24.0605 8.39779 23.7595 8.53241C23.4586 8.66702 23.1305 8.73316 22.7998 8.72591C22.562 8.73964 22.3238 8.70543 22.1001 8.62543C21.8762 8.54546 21.6717 8.42137 21.4986 8.26081C21.3255 8.10028 21.1877 7.90668 21.0939 7.692C21 7.47728 20.9521 7.24601 20.9531 7.01244C20.9531 5.55811 22.2746 4.82284 24.4417 4.8358V4.74186C24.4417 4.36289 24.2831 3.73452 23.2458 3.73452C22.6898 3.73542 22.1444 3.88309 21.6667 4.16207L21.376 3.21303C22.0268 2.86486 22.7589 2.68953 23.5002 2.7045C25.3799 2.7045 25.925 3.87704 25.925 5.13055V7.21327C25.9177 7.67567 25.9455 8.13795 26.0076 8.59634H24.6697ZM24.4781 5.7816C23.4275 5.75893 22.4265 5.98242 22.4265 6.85697C22.4166 6.96807 22.4315 7.07995 22.4701 7.18479C22.5088 7.28968 22.5706 7.38494 22.6508 7.46394C22.7311 7.54297 22.8279 7.6038 22.9346 7.64218C23.0417 7.68057 23.1556 7.69559 23.2689 7.68617C23.523 7.69096 23.7721 7.61672 23.9802 7.47417C24.1887 7.33159 24.3456 7.12801 24.4285 6.8926C24.4622 6.78788 24.479 6.67856 24.4781 6.56869V5.7816Z" fill="black"/>
<path d="M29.4972 1.22776C29.4989 1.33491 29.4777 1.44121 29.4351 1.53991C29.3928 1.63863 29.3297 1.72754 29.2501 1.80097C29.1705 1.87444 29.076 1.93083 28.9729 1.96652C28.8699 2.00225 28.7605 2.0165 28.6515 2.00837C28.5445 2.01375 28.4374 1.99739 28.337 1.96037C28.2366 1.92334 28.1454 1.8664 28.0684 1.79317C27.9914 1.7199 27.9307 1.63186 27.89 1.53459C27.8494 1.43729 27.8299 1.33286 27.8322 1.22776C27.8577 1.03063 27.9558 0.849371 28.1077 0.717995C28.2597 0.586619 28.4556 0.51416 28.6581 0.51416C28.8609 0.51416 29.0565 0.586619 29.2085 0.717995C29.3604 0.849371 29.4586 1.03063 29.484 1.22776H29.4972ZM27.9148 8.59661V2.83757H29.4047V8.59661H27.9148Z" fill="black"/>
<path d="M36.8471 0.197754V6.9771C36.8471 7.56661 36.8702 8.2047 36.8966 8.59663H35.5752L35.5157 7.68645H35.4893C35.297 8.01476 35.0169 8.28523 34.6792 8.46849C34.3416 8.65179 33.9591 8.7409 33.5732 8.72619C32.1725 8.72619 31.0625 7.55689 31.0625 5.78189C31.0625 3.83845 32.2815 2.70478 33.7054 2.70478C34.0235 2.6836 34.3423 2.74203 34.631 2.87461C34.9201 3.00718 35.1698 3.20956 35.3571 3.46272H35.3538V0.197754H36.8471ZM35.3538 5.23773C35.3532 5.11059 35.341 4.98378 35.3175 4.85876C35.2594 4.56834 35.0998 4.30682 34.8666 4.11892C34.6333 3.93103 34.341 3.82844 34.039 3.82874C33.0843 3.82874 32.5557 4.65794 32.5557 5.7333C32.5557 6.80867 33.0843 7.55689 34.0258 7.55689C34.3268 7.55356 34.6175 7.44965 34.8497 7.26236C35.0823 7.07508 35.2425 6.8156 35.3043 6.52687C35.34 6.38714 35.3568 6.24336 35.3538 6.09932V5.23773Z" fill="black"/>
</g>
<defs>
<clipPath id="clip0_13024_368758">
<rect width="37" height="8.74545" fill="white" transform="translate(0.00390625)"/>
</clipPath>
</defs>
</svg>
