<svg width="32" height="18" viewBox="0 0 32 18" fill="none" xmlns="http://www.w3.org/2000/svg">
<g clip-path="url(#clip0_13764_318939)">
<path d="M23.4776 0H8.49892C3.81807 0 -0.0117188 3.82979 -0.0117188 8.51064C-0.0117188 13.1915 3.81807 17.0213 8.49892 17.0213H23.4776C28.1585 17.0213 31.9883 13.1915 31.9883 8.51064C31.9883 3.82979 28.1585 0 23.4776 0Z" fill="white"/>
<path d="M23.4776 0.689362C24.5287 0.689362 25.55 0.897872 26.5117 1.30638C27.4436 1.70213 28.2776 2.26809 29.001 2.98723C29.7202 3.70638 30.2862 4.54468 30.6819 5.4766C31.0904 6.4383 31.2989 7.45957 31.2989 8.51064C31.2989 9.5617 31.0904 10.583 30.6819 11.5447C30.2862 12.4766 29.7202 13.3106 29.001 14.034C28.2819 14.7532 27.4436 15.3191 26.5117 15.7149C25.55 16.1234 24.5287 16.3319 23.4776 16.3319H8.49892C7.44786 16.3319 6.42658 16.1234 5.46488 15.7149C4.53296 15.3191 3.69892 14.7532 2.97552 14.034C2.25637 13.3149 1.69041 12.4766 1.29466 11.5447C0.886153 10.583 0.677643 9.5617 0.677643 8.51064C0.677643 7.45957 0.886153 6.4383 1.29466 5.4766C1.69041 4.54468 2.25637 3.71064 2.97552 2.98723C3.69466 2.26809 4.53296 1.70213 5.46488 1.30638C6.42658 0.897872 7.44786 0.689362 8.49892 0.689362H23.4776ZM23.4776 0H8.49892C3.81807 0 -0.0117188 3.82979 -0.0117188 8.51064C-0.0117188 13.1915 3.81807 17.0213 8.49892 17.0213H23.4776C28.1585 17.0213 31.9883 13.1915 31.9883 8.51064C31.9883 3.82979 28.1585 0 23.4776 0Z" fill="#3C4043"/>
<path d="M15.2467 9.11501V11.6895H14.4297V5.33203H16.5956C17.1446 5.33203 17.6127 5.51501 17.9956 5.88097C18.3871 6.24693 18.5829 6.69373 18.5829 7.22139C18.5829 7.76182 18.3871 8.20863 17.9956 8.57033C17.6169 8.93203 17.1488 9.11076 16.5956 9.11076H15.2467V9.11501ZM15.2467 6.11501V8.33203H16.6127C16.9361 8.33203 17.2084 8.22139 17.4212 8.00437C17.6382 7.78735 17.7488 7.52352 17.7488 7.22565C17.7488 6.93203 17.6382 6.67246 17.4212 6.45544C17.2084 6.2299 16.9403 6.11927 16.6127 6.11927H15.2467V6.11501Z" fill="#3C4043"/>
<path d="M20.7182 7.1958C21.3224 7.1958 21.799 7.3575 22.148 7.68091C22.4969 8.00431 22.6714 8.44686 22.6714 9.00857V11.6894H21.8927V11.0852H21.8586C21.5224 11.583 21.0714 11.8298 20.5097 11.8298C20.0288 11.8298 19.6288 11.6894 19.3054 11.4043C18.982 11.1192 18.8203 10.766 18.8203 10.3405C18.8203 9.88942 18.9905 9.53197 19.331 9.26814C19.6714 9.00006 20.1267 8.86814 20.6927 8.86814C21.1778 8.86814 21.5778 8.9575 21.8884 9.13623V8.94899C21.8884 8.66389 21.7778 8.42559 21.5522 8.22559C21.3267 8.02559 21.0629 7.92771 20.7607 7.92771C20.3054 7.92771 19.9437 8.1192 19.6799 8.50644L18.9607 8.05537C19.3565 7.48091 19.9437 7.1958 20.7182 7.1958ZM19.6629 10.3532C19.6629 10.566 19.7522 10.7447 19.9352 10.8852C20.1139 11.0256 20.3267 11.0979 20.5692 11.0979C20.9139 11.0979 21.2203 10.9703 21.4884 10.7149C21.7565 10.4596 21.8927 10.1618 21.8927 9.81708C21.6373 9.61708 21.2841 9.51495 20.8288 9.51495C20.4969 9.51495 20.2203 9.5958 19.999 9.75325C19.7735 9.91921 19.6629 10.1192 19.6629 10.3532Z" fill="#3C4043"/>
<path d="M27.1146 7.33618L24.3912 13.6H23.5486L24.5614 11.4085L22.7656 7.33618H23.655L24.9486 10.4596H24.9656L26.2252 7.33618H27.1146Z" fill="#3C4043"/>
<path d="M11.9967 8.59573C11.9967 8.32935 11.9729 8.07445 11.9286 7.82935H8.50391V9.2336L10.4763 9.23403C10.3963 9.70126 10.1388 10.0996 9.74434 10.3651V11.2762H10.9184C11.6039 10.6417 11.9967 9.70381 11.9967 8.59573Z" fill="#4285F4"/>
<path d="M9.74397 10.3653C9.41716 10.5857 8.99631 10.7146 8.50397 10.7146C7.55291 10.7146 6.7461 10.0738 6.45716 9.20996H5.24609V10.1495C5.84609 11.3402 7.07929 12.1572 8.50397 12.1572C9.48865 12.1572 10.3159 11.8334 10.918 11.2759L9.74397 10.3653Z" fill="#34A853"/>
<path d="M6.34406 8.51276C6.34406 8.27021 6.38448 8.03574 6.4581 7.81531V6.87573H5.24703C4.99895 7.36807 4.85938 7.92382 4.85938 8.51276C4.85938 9.1017 4.99937 9.65745 5.24703 10.1498L6.4581 9.21021C6.38448 8.98978 6.34406 8.75532 6.34406 8.51276Z" fill="#FABB05"/>
<path d="M8.50397 6.31072C9.04142 6.31072 9.52269 6.49582 9.9027 6.85753L10.9431 5.81795C10.3112 5.22944 9.48738 4.86816 8.50397 4.86816C7.07971 4.86816 5.84609 5.68519 5.24609 6.87582L6.45716 7.8154C6.7461 6.95157 7.55291 6.31072 8.50397 6.31072Z" fill="#E94235"/>
</g>
<defs>
<clipPath id="clip0_13764_318939">
<rect width="32" height="17.0213" fill="white"/>
</clipPath>
</defs>
</svg>
