<svg width="30" height="20" viewBox="0 0 30 20" fill="none" xmlns="http://www.w3.org/2000/svg">
<path d="M18.9568 3.48438H11.043V16.5131H18.9568V3.48438Z" fill="#FF5F00"/>
<path d="M11.8586 10.0001C11.8576 8.74551 12.1398 7.50716 12.6837 6.37875C13.2276 5.25033 14.019 4.26141 14.9981 3.48683C13.7855 2.52623 12.3292 1.92889 10.7957 1.76309C9.26224 1.59728 7.7134 1.86969 6.32625 2.54918C4.93909 3.22867 3.76956 4.28783 2.95134 5.60561C2.13312 6.92339 1.69922 8.44662 1.69922 10.0012C1.69922 11.5558 2.13312 13.079 2.95134 14.3968C3.76956 15.7146 4.93909 16.7737 6.32625 17.4532C7.7134 18.1327 9.26224 18.4051 10.7957 18.2393C12.3292 18.0735 13.7855 17.4762 14.9981 16.5156C14.0187 15.7408 13.2271 14.7515 12.6832 13.6226C12.1392 12.4938 11.8573 11.255 11.8586 10.0001Z" fill="#EB001B"/>
<path d="M27.513 15.1347V14.8677H27.6272V14.8125H27.3555V14.8677H27.4628V15.1347H27.513ZM28.0405 15.1347V14.8125H27.9583L27.8624 15.0426L27.7665 14.8125H27.6843V15.1347H27.7436V14.8908L27.8327 15.1002H27.8943L27.9834 14.8908V15.1347H28.0405Z" fill="#F79E1B"/>
<path d="M28.3001 9.9999C28.3001 11.5546 27.8661 13.0779 27.0477 14.3958C26.2293 15.7136 25.0596 16.7727 23.6723 17.4521C22.285 18.1315 20.736 18.4037 19.2024 18.2377C17.6688 18.0717 16.2125 17.474 15 16.5131C15.9787 15.7379 16.7699 14.7487 17.314 13.6202C17.858 12.4917 18.1407 11.2534 18.1407 9.99875C18.1407 8.74408 17.858 7.50579 17.314 6.37731C16.7699 5.24883 15.9787 4.25964 15 3.48437C16.2125 2.52347 17.6688 1.92584 19.2024 1.7598C20.736 1.59375 22.285 1.86598 23.6723 2.54538C25.0596 3.22478 26.2293 4.28392 27.0477 5.60174C27.8661 6.91957 28.3001 8.44289 28.3001 9.9976V9.9999Z" fill="#F79E1B"/>
</svg>