<svg width="40" height="13" viewBox="0 0 40 13" fill="none" xmlns="http://www.w3.org/2000/svg">
<g clip-path="url(#clip0_13024_368737)">
<path d="M5.64428 5.40751H5.05774V0.818632L3.27756 4.81802H2.66016L0.883415 0.84687V5.40045H0.296875V0.147949H1.18526L2.96886 4.14028L4.74904 0.165598H5.64428V5.40751Z" fill="#EB001B"/>
<path d="M10.2943 5.40775H9.74894V4.87826C9.59974 5.07399 9.40765 5.23047 9.18813 5.33482C8.96861 5.43913 8.72817 5.48833 8.4867 5.47834C8.25414 5.47863 8.02398 5.43023 7.80995 5.33609C7.59626 5.24191 7.40315 5.10396 7.24263 4.93061C7.0821 4.75725 6.9576 4.55213 6.87665 4.3277C6.7957 4.10327 6.76003 3.86422 6.77169 3.62514C6.76106 3.38662 6.79741 3.14836 6.87905 2.92477C6.96034 2.70115 7.08484 2.49691 7.24537 2.3243C7.40555 2.15172 7.59832 2.01441 7.81167 1.92069C8.02501 1.82693 8.25483 1.77875 8.4867 1.779C8.72783 1.76947 8.96793 1.8185 9.18711 1.92213C9.40628 2.02577 9.59871 2.18109 9.74894 2.37555V1.84607H10.2943V5.40775ZM7.31363 3.62514C7.32289 3.87414 7.4035 4.11481 7.54482 4.31718C7.68579 4.51955 7.88198 4.67472 8.10836 4.76336C8.3344 4.852 8.58102 4.87021 8.81735 4.81574C9.05368 4.76128 9.26909 4.63653 9.43716 4.457C9.60523 4.27747 9.71807 4.05109 9.76198 3.80601C9.80588 3.56097 9.77878 3.30801 9.68377 3.07868C9.5891 2.84934 9.43098 2.65374 9.22929 2.51615C9.02726 2.37859 8.7906 2.30513 8.54844 2.30495C8.38174 2.30382 8.21675 2.33757 8.06343 2.40418C7.90977 2.47075 7.7712 2.56878 7.6556 2.69226C7.54001 2.81577 7.45014 2.96215 7.39149 3.12252C7.33283 3.28288 7.30608 3.4539 7.31363 3.62514Z" fill="#EB001B"/>
<path d="M13.8916 2.60498C13.552 2.38715 13.16 2.27102 12.7597 2.26964C12.2658 2.26964 11.9433 2.48496 11.9433 2.83089C11.9433 3.17683 12.1937 3.27213 12.6465 3.32861L13.0547 3.38156C13.7887 3.4804 14.2174 3.79103 14.2174 4.37346C14.2174 5.05121 13.6241 5.4748 12.6945 5.4748C12.1793 5.48606 11.6741 5.3264 11.2539 5.01944L11.5043 4.59938C11.8459 4.87097 12.2702 5.0086 12.7014 4.98767C13.2845 4.98767 13.6549 4.78646 13.6549 4.41229C13.6549 4.12637 13.4217 3.95341 12.9312 3.8934L12.5196 3.84398C11.741 3.74514 11.3774 3.38862 11.3774 2.85913C11.3774 2.18845 11.9262 1.80016 12.7494 1.80016C13.2334 1.79194 13.7095 1.92667 14.1214 2.18845L13.8916 2.60498Z" fill="#EB001B"/>
<path d="M17.5186 2.37574H16.0265V4.1407C16.0265 4.69842 16.3112 4.94199 16.7125 4.94199C16.9743 4.93786 17.2284 4.85028 17.4397 4.69136L17.697 5.11495C17.4009 5.34595 17.0394 5.47003 16.668 5.46794C15.9236 5.46794 15.4812 5.04788 15.4812 4.15482V2.37574H14.7266V1.84978H15.4812V0.720215H16.0231V1.84978H17.5152L17.5186 2.37574Z" fill="#EB001B"/>
<path d="M21.5424 3.61453C21.5458 3.6851 21.5458 3.75577 21.5424 3.82633H18.7709C18.7775 3.98585 18.8145 4.14243 18.88 4.28719C18.9455 4.43192 19.0381 4.56193 19.1527 4.6698C19.2669 4.77768 19.401 4.86126 19.5468 4.9158C19.6926 4.97037 19.8473 4.99476 20.0023 4.98767C20.4091 4.987 20.8005 4.82667 21.0965 4.53937L21.388 4.9206C21.2004 5.10758 20.9778 5.25344 20.7336 5.34927C20.4894 5.44515 20.229 5.48906 19.968 5.47833C19.7324 5.48666 19.4978 5.44423 19.2789 5.35372C19.0604 5.26321 18.8625 5.12668 18.6982 4.95283C18.5336 4.77902 18.4063 4.57171 18.3243 4.34427C18.2424 4.11684 18.2077 3.8743 18.2221 3.63218C18.2074 3.39236 18.241 3.15201 18.3209 2.9262C18.4008 2.70039 18.5253 2.494 18.6862 2.31998C18.8471 2.14595 19.0416 2.00807 19.2566 1.91499C19.472 1.82191 19.7036 1.77559 19.9371 1.77898C20.8564 1.77898 21.5355 2.53438 21.5424 3.61453ZM18.7709 3.37097H20.9867C20.9812 3.07975 20.865 2.80234 20.6629 2.59838C20.4609 2.39442 20.1892 2.28019 19.9063 2.28023C19.6168 2.27613 19.3372 2.38736 19.1256 2.59065C18.914 2.79394 18.7867 3.07354 18.7709 3.37097Z" fill="#EB001B"/>
<path d="M24.7597 1.89892L24.6294 2.44959C24.4435 2.35601 24.2394 2.30772 24.0325 2.30839C23.4906 2.30839 23.0927 2.72845 23.0927 3.43443V5.4253H22.5508V1.8495H23.0927V2.35075C23.2038 2.17422 23.3565 2.02932 23.5362 1.92939C23.7159 1.82945 23.9173 1.77771 24.1217 1.77891C24.3402 1.7705 24.558 1.81149 24.7597 1.89892Z" fill="#EB001B"/>
<path d="M28.2344 2.34031L27.8914 2.7286C27.769 2.59852 27.6221 2.49499 27.4603 2.42407C27.2984 2.35316 27.1241 2.31627 26.9481 2.3156C26.6233 2.34003 26.3194 2.49012 26.0975 2.73566C25.8756 2.9812 25.7524 3.30405 25.7524 3.63932C25.7524 3.97459 25.8756 4.29743 26.0975 4.54297C26.3194 4.78851 26.6233 4.93861 26.9481 4.96303C27.3073 4.95608 27.6499 4.8069 27.9051 4.5465L28.2481 4.92773C28.0859 5.11065 27.8876 5.25549 27.666 5.35231C27.4448 5.44917 27.2057 5.4958 26.9653 5.48899C26.4885 5.48899 26.0313 5.2941 25.6945 4.94722C25.3573 4.60037 25.168 4.12987 25.168 3.63932C25.168 3.14876 25.3573 2.6783 25.6945 2.33141C26.0313 1.98453 26.4885 1.78964 26.9653 1.78964C27.2027 1.78329 27.4386 1.82914 27.6575 1.9241C27.8763 2.01905 28.0732 2.16095 28.2344 2.34031Z" fill="#EB001B"/>
<path d="M32.3846 5.40802H31.8427V4.87853C31.6931 5.07384 31.5007 5.23 31.2815 5.33428C31.062 5.43858 30.8219 5.48804 30.5804 5.47861C30.3479 5.4789 30.1177 5.4305 29.9037 5.33636C29.69 5.24218 29.4969 5.10423 29.3364 4.93088C29.1759 4.75752 29.0513 4.5524 28.9704 4.32797C28.8894 4.10354 28.8538 3.86449 28.8654 3.62541C28.8548 3.38689 28.8912 3.14862 28.9728 2.92504C29.0541 2.70142 29.1786 2.49718 29.3391 2.32457C29.4993 2.15199 29.6921 2.01468 29.9054 1.92096C30.1188 1.8272 30.3486 1.77902 30.5804 1.77927C30.8219 1.77069 31.0617 1.82053 31.2809 1.92477C31.5 2.02897 31.6925 2.18468 31.8427 2.37935V1.84986H32.3846V5.40802ZM29.4074 3.62541C29.417 3.87469 29.4972 4.11564 29.6389 4.31815C29.7805 4.52067 29.9768 4.67581 30.2035 4.76423C30.4302 4.85269 30.6772 4.87048 30.9138 4.81541C31.1502 4.76038 31.3656 4.63493 31.5333 4.45469C31.701 4.27446 31.8132 4.04745 31.8564 3.80194C31.8996 3.5564 31.8715 3.30327 31.7758 3.07407C31.6798 2.84488 31.5206 2.64974 31.3179 2.51303C31.1152 2.37628 30.8778 2.30402 30.6353 2.30522C30.4696 2.30554 30.3053 2.34035 30.1531 2.40752C30.0004 2.47469 29.8629 2.5729 29.7483 2.6962C29.6334 2.81946 29.5442 2.96532 29.4856 3.12501C29.4269 3.28467 29.4005 3.45488 29.4074 3.62541Z" fill="#EB001B"/>
<path d="M35.8627 1.89911L35.7324 2.44977C35.5451 2.35651 35.34 2.30823 35.1321 2.30858C34.5936 2.30858 34.206 2.74276 34.206 3.41697V5.40784H33.6641V1.84969H34.2026V2.35094C34.3134 2.17395 34.4656 2.02869 34.6454 1.92869C34.8255 1.82869 35.0272 1.77722 35.2316 1.77909C35.448 1.77207 35.6631 1.81302 35.8627 1.89911Z" fill="#EB001B"/>
<path d="M39.2724 2.37563V0H39.8143V5.40782H39.2724V4.87834C39.1232 5.07407 38.9311 5.23055 38.7116 5.33489C38.492 5.4392 38.2516 5.48841 38.0101 5.47842C37.7776 5.4787 37.5474 5.43031 37.3334 5.33617C37.1197 5.24199 36.9266 5.10404 36.7661 4.93068C36.6055 4.75733 36.481 4.55221 36.4001 4.32778C36.3191 4.10334 36.2835 3.8643 36.2951 3.62522C36.2845 3.3867 36.3208 3.14843 36.4025 2.92485C36.4838 2.70126 36.6083 2.49699 36.7688 2.32438C36.929 2.1518 37.1218 2.01448 37.3351 1.92076C37.5485 1.82701 37.7783 1.77883 38.0101 1.77908C38.2513 1.76954 38.4914 1.81857 38.7105 1.92221C38.9297 2.02585 39.1221 2.18117 39.2724 2.37563ZM36.8371 3.62169C36.8463 3.87055 36.9266 4.11104 37.0679 4.31337C37.2089 4.51567 37.4047 4.67085 37.6308 4.75959C37.8568 4.84833 38.1034 4.86676 38.3398 4.81257C38.5757 4.75839 38.7915 4.63399 38.9592 4.45478C39.1273 4.2756 39.2408 4.04955 39.2851 3.80471C39.3293 3.55988 39.3026 3.30707 39.2082 3.07766C39.1143 2.84825 38.9565 2.65241 38.7551 2.51443C38.5538 2.37641 38.3175 2.30238 38.0753 2.3015C37.9083 2.30037 37.7429 2.33422 37.5889 2.40097C37.4349 2.46772 37.296 2.56603 37.1801 2.68983C37.0641 2.81366 36.9743 2.96043 36.9153 3.12125C36.8563 3.28204 36.8295 3.45352 36.8371 3.62522V3.62169Z" fill="#EB001B"/>
<path d="M3.63239 8.29899C3.17962 7.97742 2.64249 7.80618 2.09231 7.80833C1.32056 7.80833 0.771754 8.16132 0.771754 8.75788C0.771754 9.24501 1.15591 9.51328 1.94825 9.60859L2.43531 9.66859C3.2791 9.77449 4.03027 10.1416 4.03027 11.0523C4.03027 12.0901 3.11103 12.6337 2.00656 12.6337C1.2842 12.636 0.580359 12.3983 0 11.956L0.322422 11.4759C0.806055 11.8534 1.39602 12.0591 2.00313 12.0619C2.79546 12.0619 3.41973 11.7301 3.41973 11.1053C3.41973 10.5934 2.9944 10.3393 2.18492 10.244L1.67042 10.184C0.795762 10.0816 0.161211 9.66506 0.161211 8.79318C0.161211 7.79421 1.02558 7.23649 2.09575 7.23649C2.75122 7.22286 3.39401 7.42439 3.93081 7.81186L3.63239 8.29899Z" fill="#F79E1B"/>
<path d="M7.99784 10.7696C8.00299 10.8401 8.00299 10.9109 7.99784 10.9814H5.22981C5.23564 11.1402 5.27166 11.2962 5.33649 11.4404C5.40097 11.5847 5.49256 11.7143 5.60609 11.822C5.71963 11.9296 5.85271 12.013 5.9978 12.0675C6.14255 12.1219 6.29655 12.1463 6.4509 12.1392C6.85804 12.1383 7.2501 11.9795 7.54851 11.6945L7.84006 12.0757C7.65175 12.262 7.42915 12.4074 7.18527 12.5032C6.94106 12.599 6.68105 12.6433 6.42003 12.6334C5.94326 12.6381 5.48432 12.4477 5.14406 12.1042C4.80381 11.7606 4.61001 11.292 4.60555 10.8014C4.60109 10.3109 4.78597 9.83852 5.11972 9.48831C5.4538 9.13811 5.90896 8.93878 6.38573 8.93408C7.31183 8.93408 7.99784 9.68948 7.99784 10.7696ZM5.22296 10.5261H7.44218C7.43772 10.2343 7.32178 9.95592 7.11976 9.75122C6.91773 9.54649 6.64539 9.43176 6.36173 9.4318C6.07292 9.43039 5.7944 9.5431 5.5838 9.7467C5.37319 9.95027 5.24662 10.2292 5.22981 10.5261H5.22296Z" fill="#F79E1B"/>
<path d="M11.6407 9.49178L11.2977 9.87301C11.1755 9.7423 11.0291 9.63834 10.8672 9.56736C10.7049 9.49637 10.5307 9.45987 10.3544 9.46001C10.0296 9.48444 9.72568 9.63453 9.50376 9.88007C9.28184 10.1256 9.1587 10.4485 9.1587 10.7837C9.1587 11.119 9.28184 11.4418 9.50376 11.6874C9.72568 11.9329 10.0296 12.083 10.3544 12.1074C10.7128 12.1021 11.0551 11.9527 11.3079 11.6909L11.6509 12.0721C11.4894 12.2546 11.2915 12.3992 11.0706 12.496C10.8497 12.5928 10.6113 12.6397 10.3716 12.6334C9.89478 12.6334 9.43755 12.4385 9.10073 12.0916C8.76356 11.7447 8.57422 11.2743 8.57422 10.7837C8.57422 10.2932 8.76356 9.82271 9.10073 9.47583C9.43755 9.12894 9.89478 8.93406 10.3716 8.93406C10.6096 8.92837 10.8459 8.97521 11.0648 9.07144C11.2836 9.16763 11.4801 9.31094 11.6407 9.49178Z" fill="#F79E1B"/>
<path d="M15.4158 11.0769C15.4158 12.1359 14.6784 12.6336 13.8483 12.6336C13.0182 12.6336 12.2773 12.1324 12.2773 11.0769V9.00488H12.8227V11.024C12.8227 11.3048 12.9311 11.5742 13.1242 11.7728C13.317 11.9714 13.5787 12.083 13.8517 12.083C14.1248 12.083 14.3865 11.9714 14.5792 11.7728C14.7723 11.5742 14.8807 11.3048 14.8807 11.024V9.00488H15.4261L15.4158 11.0769Z" fill="#F79E1B"/>
<path d="M18.601 9.05436L18.4706 9.60503C18.2847 9.51145 18.0807 9.46316 17.8738 9.46384C17.3319 9.46384 16.9443 9.89801 16.9443 10.5722V12.5596H16.4023V9.00495H16.9409V9.50266C17.0516 9.3261 17.2043 9.18134 17.384 9.08197C17.5641 8.98257 17.7658 8.93177 17.9699 8.93435C18.1863 8.92524 18.402 8.96626 18.601 9.05436Z" fill="#F79E1B"/>
<path d="M22.2056 10.7698C22.209 10.8404 22.209 10.911 22.2056 10.9816H19.4341C19.4475 11.3022 19.584 11.6042 19.8135 11.8213C20.0433 12.0384 20.3472 12.1528 20.6586 12.1394C21.0647 12.1386 21.4558 11.9798 21.7528 11.6946L22.0444 12.0759C21.8564 12.2624 21.6334 12.4079 21.3896 12.5037C21.1457 12.5995 20.8853 12.6437 20.6243 12.6336C20.3883 12.642 20.1534 12.5994 19.9345 12.5087C19.7157 12.418 19.5175 12.2811 19.3532 12.1069C19.1885 11.9327 19.0616 11.725 18.9796 11.4971C18.898 11.2693 18.8634 11.0263 18.8784 10.7839C18.8644 10.5444 18.8983 10.3044 18.9783 10.079C19.0585 9.85362 19.1827 9.64768 19.3439 9.47405C19.5048 9.30041 19.6989 9.16285 19.914 9.06998C20.129 8.9771 20.3602 8.9309 20.5935 8.93425C21.5196 8.93425 22.1987 9.68965 22.2056 10.7698ZM19.4341 10.5262H21.6499C21.6454 10.2344 21.5295 9.95609 21.3275 9.75139C21.1254 9.54666 20.8531 9.43193 20.5694 9.43197C20.2796 9.42879 20.0001 9.5408 19.7884 9.74465C19.5768 9.9485 19.4499 10.2285 19.4341 10.5262Z" fill="#F79E1B"/>
<path d="M27.5482 8.3162L27.0611 8.66919C26.8883 8.40389 26.6547 8.18669 26.3806 8.03702C26.1062 7.88735 25.8006 7.80984 25.4902 7.81143C24.9445 7.81143 24.4211 8.03455 24.0348 8.43177C23.649 8.82896 23.4322 9.36766 23.4322 9.92937C23.4322 10.4911 23.649 11.0298 24.0348 11.427C24.4211 11.8242 24.9445 12.0473 25.4902 12.0473C25.8013 12.0518 26.1086 11.9768 26.3848 11.8289C26.6605 11.6811 26.8965 11.465 27.0714 11.2001L27.5448 11.5531C27.3126 11.8901 27.0035 12.163 26.6444 12.3477C26.2856 12.5324 25.8881 12.6232 25.4868 12.6121C24.7898 12.6121 24.1216 12.3272 23.6291 11.8201C23.1362 11.3131 22.8594 10.6253 22.8594 9.90819C22.8594 9.19106 23.1362 8.50332 23.6291 7.99625C24.1216 7.48914 24.7898 7.20428 25.4868 7.20428C25.8939 7.19454 26.2966 7.29151 26.6571 7.486C27.0179 7.6805 27.3242 7.96621 27.5482 8.3162Z" fill="#F79E1B"/>
<path d="M31.7596 10.7802C31.7651 11.1526 31.6625 11.5183 31.4649 11.8305C31.2677 12.1428 30.9844 12.3874 30.6513 12.5332C30.3183 12.679 29.9506 12.7193 29.5949 12.6491C29.2395 12.5788 28.9123 12.4012 28.6554 12.1388C28.3985 11.8764 28.2236 11.5411 28.1526 11.1759C28.0816 10.8106 28.1179 10.4318 28.2569 10.0879C28.3961 9.74402 28.6318 9.45058 28.9336 9.24506C29.2354 9.03955 29.5901 8.93126 29.952 8.93401C30.1897 8.92879 30.4257 8.97284 30.6466 9.06359C30.8671 9.15431 31.0677 9.28989 31.2365 9.46219C31.4053 9.63448 31.5387 9.83996 31.6286 10.0664C31.7181 10.2928 31.763 10.5356 31.7596 10.7802ZM28.6726 10.7802C28.6767 11.0354 28.7535 11.2837 28.8942 11.4941C29.0344 11.7046 29.232 11.8678 29.4618 11.9633C29.692 12.0589 29.9441 12.0827 30.1873 12.0316C30.4301 11.9805 30.6531 11.8569 30.8283 11.6761C31.0036 11.4954 31.123 11.2656 31.172 11.0153C31.2211 10.7651 31.1974 10.5056 31.1038 10.2692C31.0101 10.0328 30.8513 9.82993 30.6462 9.68602C30.4414 9.54207 30.2 9.46346 29.952 9.45997C29.7825 9.45506 29.6138 9.48587 29.4563 9.55058C29.2989 9.61528 29.1562 9.71246 29.0365 9.83615C28.9171 9.95984 28.8235 10.1074 28.7614 10.2698C28.6993 10.4321 28.6702 10.6058 28.676 10.7802H28.6726Z" fill="#F79E1B"/>
<path d="M35.3154 9.53454V7.15186H35.8573V12.5597H35.3154V12.0302C35.1682 12.225 34.9786 12.3813 34.7614 12.4862C34.5447 12.5911 34.3066 12.6417 34.0669 12.6338C33.5901 12.6338 33.1329 12.4389 32.796 12.092C32.4589 11.7452 32.2695 11.2747 32.2695 10.7841C32.2695 10.2936 32.4589 9.82312 32.796 9.47623C33.1329 9.12935 33.5901 8.93446 34.0669 8.93446C34.3059 8.92758 34.5433 8.97823 34.7601 9.0824C34.9768 9.18657 35.1669 9.34142 35.3154 9.53454ZM32.8801 10.7806C32.8893 11.0295 32.9696 11.27 33.1109 11.4723C33.2519 11.6746 33.4477 11.8297 33.6738 11.9185C33.8998 12.0072 34.1464 12.0257 34.3828 11.9715C34.6188 11.9173 34.8345 11.7929 35.0022 11.6137C35.1703 11.4345 35.2835 11.2085 35.3281 10.9636C35.3723 10.7188 35.3456 10.466 35.2512 10.2366C35.1573 10.0072 34.9995 9.81133 34.7981 9.67331C34.5968 9.53532 34.3605 9.4613 34.1183 9.46042C33.9516 9.45932 33.7863 9.49307 33.6326 9.55961C33.479 9.62615 33.34 9.7241 33.2244 9.84754C33.1085 9.97098 33.0183 10.1173 32.9593 10.2777C32.9 10.4381 32.8732 10.6092 32.8801 10.7806Z" fill="#F79E1B"/>
<path d="M39.9956 10.7696C39.999 10.8402 39.999 10.9109 39.9956 10.9814H37.2276C37.2334 11.1402 37.2694 11.2962 37.3343 11.4404C37.3988 11.5847 37.4903 11.7143 37.6039 11.822C37.7174 11.9296 37.8505 12.013 37.9956 12.0675C38.1403 12.1219 38.2947 12.1463 38.4487 12.1392C38.8548 12.1385 39.2458 11.9796 39.5429 11.6945L39.8344 12.0757C39.6465 12.2622 39.4235 12.4077 39.1796 12.5035C38.9358 12.5994 38.6754 12.6435 38.4144 12.6334C37.9376 12.6376 37.479 12.4468 37.1391 12.1029C36.7988 11.759 36.6057 11.2902 36.6016 10.7996C36.5975 10.3091 36.7831 9.83693 37.1172 9.48708C37.4512 9.13719 37.9068 8.93828 38.3835 8.93408C39.3096 8.93408 39.9888 9.68948 39.9956 10.7696ZM37.2242 10.5261H39.4434C39.4379 10.2345 39.322 9.95673 39.1199 9.75221C38.9179 9.54769 38.6463 9.43268 38.3629 9.4318C38.0728 9.4277 37.7918 9.53928 37.5799 9.74324C37.3675 9.9472 37.24 10.2277 37.2242 10.5261Z" fill="#F79E1B"/>
</g>
<defs>
<clipPath id="clip0_13024_368737">
<rect width="40" height="12.6829" fill="white"/>
</clipPath>
</defs>
</svg>