<svg width="33" height="32" viewBox="0 0 33 32" fill="none" xmlns="http://www.w3.org/2000/svg">
<path d="M31.5028 11.2991C31.1137 8.36724 30.0763 5.71162 28.2467 3.76642C26.3015 1.9368 23.6458 0.899356 20.7139 0.513135C19.1558 0.291935 17.5822 0.197654 16.0088 0.231221C14.4354 0.197654 12.8618 0.291935 11.3037 0.513135C8.37178 0.899356 5.71615 1.9368 3.77095 3.76642C1.94133 5.71162 0.903889 8.36724 0.514849 11.2991C0.29435 12.8574 0.200072 14.4309 0.232935 16.0043C0.200072 17.5777 0.29435 19.1512 0.514849 20.7094C0.903889 23.6413 1.94133 26.2969 3.77095 28.2421C5.71615 30.0718 8.37178 31.1092 11.3037 31.4982C12.8617 31.7205 14.4354 31.8148 16.0088 31.7802C17.5823 31.8148 19.1559 31.7205 20.7139 31.4982C23.6458 31.1092 26.3015 30.0718 28.2467 28.2421C30.0763 26.2969 31.1137 23.6413 31.5028 20.7094C31.7233 19.1512 31.8176 17.5777 31.7847 16.0043C31.8176 14.4309 31.7233 12.8574 31.5028 11.2991Z" fill="#1F4AC7"/>
<g opacity="0.1">
<path opacity="0.1" d="M16.5937 0.222712C17.9722 0.226873 19.349 0.321044 20.7152 0.504625C23.6471 0.890847 26.3028 1.92829 28.248 3.75791C30.0776 5.70311 31.115 8.35874 31.5041 11.2906C31.7246 12.8489 31.8188 14.4224 31.786 15.9958C31.8188 17.5692 31.7246 19.1427 31.5041 20.7009C31.115 23.6328 30.0776 26.2884 28.248 28.2336C26.3028 30.0633 23.6471 31.1007 20.7152 31.4897C19.3498 31.6719 17.974 31.766 16.5965 31.7717C16.2187 31.7717 16.0101 31.7717 16.0101 31.7717C16.0101 31.7717 15.8015 31.7717 15.4237 31.7717C14.0462 31.766 12.6704 31.6719 11.305 31.4897C8.37305 31.1007 5.71743 30.0633 3.77222 28.2336C1.94261 26.2969 0.905165 23.6413 0.516124 20.7094C0.295626 19.1511 0.201348 17.5776 0.234211 16.0042C0.201348 14.4308 0.295626 12.8573 0.516124 11.2991C0.905165 8.36719 1.94261 5.71157 3.77222 3.76636C5.71743 1.93675 8.37305 0.899304 11.305 0.513083C12.671 0.326673 14.0478 0.229676 15.4265 0.222712C15.8043 0.222712 16.0101 0.222712 16.0101 0.222712C16.0101 0.222712 16.2159 0.222712 16.5937 0.222712ZM16.5937 0C16.2582 0 16.058 0 16.0101 0C15.9622 0 15.762 0 15.4265 0C14.0405 0.00512884 12.6563 0.0992939 11.2824 0.281913C8.12779 0.707603 5.48062 1.85499 3.61999 3.60567C1.85803 5.47758 0.713464 8.12475 0.287774 11.2765C0.0691211 12.8425 -0.0251448 14.4234 0.00586079 16.0042C-0.025462 17.5879 0.0688044 19.1716 0.287774 20.7404C0.705006 23.8865 1.84957 26.5337 3.60026 28.3943C5.48062 30.1647 8.12779 31.2924 11.2824 31.7181C12.6582 31.9006 14.0443 31.9948 15.4322 32C15.7676 32 15.9706 32 16.0185 32C16.0665 32 16.2695 32 16.6049 32C17.9918 31.9948 19.377 31.9007 20.7519 31.7181C23.8783 31.2924 26.5057 30.1647 28.3748 28.4282L28.403 28.3971C30.1537 26.5365 31.2983 23.8865 31.7155 20.7432C31.9345 19.1744 32.0287 17.5907 31.9974 16.007C32.0287 14.4243 31.9344 12.8416 31.7155 11.2737C31.2983 8.12475 30.1706 5.47758 28.4115 3.61413L28.3438 3.54365C26.4775 1.8268 23.8557 0.704784 20.7434 0.281913C19.3677 0.0988742 17.9815 0.00470781 16.5937 0V0Z" fill="black"/>
</g>
<path d="M6.03906 11.3809H8.87511C9.28313 11.3778 9.68764 11.4564 10.0648 11.6121C10.598 11.8371 11.0522 12.2157 11.3695 12.6996C11.6868 13.1836 11.8528 13.7511 11.8465 14.3298C11.848 14.7261 11.7713 15.1189 11.6209 15.4856C11.4765 15.8385 11.2633 16.159 10.9937 16.4286C10.7241 16.6982 10.4035 16.9114 10.0507 17.0559C9.6719 17.2127 9.26532 17.2913 8.85538 17.287H7.58113V19.6579H6.03906V11.3809ZM7.58113 12.8103V15.8577H8.75953C8.97395 15.8604 9.18675 15.8202 9.38537 15.7393C9.56845 15.6645 9.73438 15.5533 9.87308 15.4123C10.0097 15.2718 10.1178 15.1062 10.1916 14.9246C10.342 14.5413 10.342 14.1154 10.1916 13.7321C10.1195 13.5514 10.011 13.3873 9.87308 13.25C9.7351 13.1102 9.57013 12.9999 9.38819 12.9258C9.18957 12.845 8.97677 12.8047 8.76235 12.8074L7.58113 12.8103Z" fill="white"/>
<path d="M15.4176 19.6692C15.0124 19.6678 14.6109 19.5913 14.2335 19.4437C13.8465 19.295 13.4908 19.0751 13.1848 18.7953C12.8685 18.5037 12.6136 18.152 12.4349 17.7607C12.2394 17.317 12.1432 16.8359 12.153 16.3511C12.1471 15.8667 12.2431 15.3864 12.4349 14.9415C12.6083 14.5476 12.8595 14.1928 13.1735 13.8985C13.4769 13.6152 13.8333 13.3948 14.2223 13.2501C14.6111 13.1015 15.0238 13.0251 15.4401 13.0245C15.8515 13.0182 16.26 13.0949 16.6411 13.2501C16.9918 13.3953 17.3057 13.6168 17.5601 13.8985V13.0245H19.0909V19.658H17.5714V18.7135C17.3205 19.0164 17.0018 19.256 16.6411 19.4127C16.2565 19.5855 15.8392 19.673 15.4176 19.6692ZM15.6657 18.2597C15.9379 18.2621 16.2079 18.2114 16.4607 18.1103C16.6947 18.0166 16.9068 17.8755 17.0837 17.6958C17.2546 17.5174 17.3912 17.3091 17.4868 17.0813C17.5891 16.8426 17.6409 16.5854 17.6391 16.3257C17.6406 16.0689 17.5888 15.8145 17.4868 15.5787C17.3888 15.3503 17.2482 15.1427 17.0724 14.9669C16.8945 14.7899 16.6826 14.6509 16.4494 14.5581C16.0788 14.4089 15.6735 14.3675 15.2804 14.4389C14.8873 14.5102 14.5224 14.6913 14.2279 14.9613C14.0527 15.1335 13.9145 15.3398 13.822 15.5674C13.7197 15.807 13.6678 16.0652 13.6697 16.3257C13.6684 16.5872 13.7202 16.8461 13.822 17.0869C13.9201 17.3197 14.065 17.5298 14.2476 17.7043C14.433 17.88 14.6502 18.0188 14.8876 18.1131C15.135 18.2121 15.3991 18.2628 15.6657 18.2625V18.2597Z" fill="white"/>
<path d="M22.3181 19.3703L19.5977 13.0244H21.2299L23.0765 17.5632L24.8131 13.0244H26.4228L22.476 22.7053H20.9226L22.3181 19.3703Z" fill="white"/>
</svg>
