<svg width="32" height="22" viewBox="0 0 32 22" fill="none" xmlns="http://www.w3.org/2000/svg">
<path d="M1.68223 8.63477L0 3.62313H0.721116L1.52781 6.08749C1.75107 6.7704 1.94009 7.36968 2.0774 7.96931H2.09451C2.23181 7.3864 2.45507 6.75368 2.67795 6.10386L3.55349 3.62313H4.2746L2.42047 8.63513H1.68223V8.63477ZM4.63516 6.95295C4.65228 7.83549 5.23609 8.20204 5.90549 8.20204C6.38623 8.20204 6.67795 8.1184 6.93581 8.01877L7.05563 8.48495C6.81563 8.58495 6.40335 8.70168 5.81991 8.70168C4.6694 8.70168 4 7.96895 4 6.8864C4 5.80422 4.65228 4.93804 5.73395 4.93804C6.95293 4.93804 7.26177 5.97077 7.26177 6.63659C7.26177 6.77004 7.24465 6.86968 7.24465 6.93659L4.63516 6.95295ZM6.60949 6.48677C6.62661 6.0704 6.43758 5.42131 5.66512 5.42131C4.9786 5.42131 4.68651 6.03731 4.63516 6.48677H6.60949ZM7.79386 6.15368C7.79386 5.73731 7.79386 5.37113 7.75963 5.03804H8.34344L8.36056 5.73731H8.39479C8.5667 5.2544 8.9786 4.95477 9.42474 4.95477C9.49358 4.95477 9.56242 4.95477 9.61377 4.97149V5.58749C9.54493 5.57077 9.47609 5.57077 9.39051 5.57077C8.90977 5.57077 8.58381 5.92059 8.48074 6.40349C8.4598 6.50212 8.44821 6.60242 8.44614 6.70313V8.6184H7.77674V6.15368H7.79386ZM10.781 4.02204C10.781 4.23877 10.6266 4.42204 10.352 4.42204C10.2979 4.42292 10.2441 4.41319 10.1939 4.39343C10.1437 4.37367 10.0981 4.34428 10.0597 4.307C10.0213 4.26971 9.99091 4.22529 9.97037 4.17634C9.94983 4.1274 9.93954 4.07493 9.94009 4.02204C9.94009 3.78931 10.1116 3.60604 10.3691 3.60604C10.6095 3.60604 10.781 3.78895 10.781 4.0224V4.02204ZM10.0257 5.03804H10.6954V8.63477H10.0257V5.03804ZM11.5881 8.63477V5.53768H11.0731V5.03804H11.5881V4.87149C11.5881 4.37186 11.7083 3.90568 12.0171 3.60604C12.2746 3.37295 12.6009 3.27295 12.9269 3.27295C13.1673 3.27295 13.3734 3.32277 13.5107 3.37295L13.4251 3.87259C13.322 3.8224 13.1844 3.78895 12.9957 3.78895C12.429 3.78895 12.2746 4.27222 12.2746 4.8384V5.0384H13.1676V5.53768H12.2746V8.63513H11.5881V8.63477ZM14.5578 4.02204C14.5753 4.23877 14.4033 4.42204 14.1287 4.42204C14.0746 4.42292 14.0209 4.41319 13.9707 4.39343C13.9205 4.37367 13.8748 4.34428 13.8364 4.307C13.798 4.26971 13.7677 4.22529 13.7471 4.17634C13.7266 4.1274 13.7163 4.07493 13.7168 4.02204C13.7168 3.78931 13.8884 3.60604 14.1459 3.60604C14.4033 3.60604 14.5578 3.78895 14.5578 4.0224V4.02204ZM13.8024 5.03804H14.4722V8.63477H13.8024V5.03804ZM15.6737 6.95295C15.6912 7.83549 16.2746 8.20204 16.9444 8.20204C17.4247 8.20204 17.7168 8.1184 17.9743 8.01877L18.0945 8.48495C17.8541 8.58495 17.4422 8.70168 16.8584 8.70168C15.7083 8.70168 15.0389 7.96895 15.0389 6.8864C15.0389 5.80422 15.6908 4.93804 16.7728 4.93804C17.9914 4.93804 18.3003 5.97077 18.3003 6.63659C18.3003 6.77004 18.2832 6.86968 18.2832 6.93659L15.6737 6.95295ZM17.648 6.48677C17.648 6.0704 17.4765 5.42131 16.704 5.42131C16.0171 5.42131 15.7254 6.03731 15.6737 6.48677H17.648ZM22.0428 3.35622V7.7024C22.0428 8.01877 22.0428 8.38531 22.0774 8.63477H21.4765L21.4422 8.00204H21.4247C21.219 8.40204 20.7725 8.70168 20.1544 8.70168C19.2618 8.70168 18.5753 7.96895 18.5753 6.86968C18.5753 5.67077 19.3306 4.93804 20.2404 4.93804C20.8071 4.93804 21.1847 5.20459 21.3563 5.48786H21.3734V3.35622H22.0432H22.0428ZM21.3734 6.50349C21.3734 6.42022 21.3734 6.30349 21.3392 6.22022C21.2361 5.80422 20.8755 5.4544 20.3606 5.4544C19.6566 5.4544 19.2447 6.05404 19.2447 6.85331C19.2447 7.58568 19.6052 8.18531 20.3434 8.18531C20.79 8.18531 21.2019 7.9024 21.3392 7.40277C21.3563 7.31913 21.3734 7.21949 21.3734 7.11949V6.50349ZM24.5321 8.63477C24.5496 8.38531 24.5667 8.01877 24.5667 7.7024V3.35659H25.2365V5.62131H25.2532C25.4936 5.22131 25.923 4.95513 26.5235 4.95513C27.4508 4.95513 28.1031 5.70422 28.086 6.78677C28.086 8.06931 27.245 8.71877 26.4208 8.71877C25.8887 8.71877 25.4593 8.51877 25.1847 8.03586H25.1676L25.133 8.63513H24.5321V8.63477ZM25.2361 7.1864C25.2361 7.26968 25.2532 7.35259 25.2703 7.41913C25.408 7.86895 25.7853 8.18531 26.2832 8.18531C26.9872 8.18531 27.4166 7.61913 27.4166 6.80349C27.4166 6.08713 27.0385 5.47113 26.3178 5.47113C25.8541 5.47113 25.4247 5.77077 25.2874 6.2704C25.2654 6.35764 25.2539 6.4471 25.2532 6.53695V7.1864H25.2361ZM28.8242 5.03804L29.6309 7.16968C29.7165 7.4024 29.8024 7.68604 29.8713 7.90204H29.8884C29.9572 7.68568 30.026 7.40277 30.1287 7.15295L30.867 5.03804H31.5881L30.5753 7.6024C30.0945 8.83477 29.7682 9.46749 29.3046 9.8504C28.9786 10.1337 28.6523 10.2504 28.4807 10.2668L28.3088 9.71731C28.5247 9.65447 28.724 9.54652 28.893 9.40095C29.0817 9.26749 29.3046 9.00095 29.4593 8.66822C29.4936 8.60168 29.5107 8.55186 29.5107 8.5184C29.5107 8.48495 29.4936 8.43477 29.4593 8.35186L28.086 5.03804H28.8242ZM11.1929 11.0828L9.15014 16.0951L8.32633 11.8319C8.22326 11.3489 7.84558 11.0828 7.41619 11.0828H4.06884L4.01712 11.2991C4.704 11.4489 5.47647 11.682 5.95721 11.9319C6.24893 12.0817 6.33488 12.2151 6.42046 12.5813L7.98288 18.4595H10.0774L13.2703 11.0828H11.1929ZM14.1116 11.0828L12.4807 18.4595H14.4547L16.0685 11.0828H14.1113H14.1116ZM18.6608 13.1311C18.6608 12.8646 18.9354 12.5813 19.5021 12.5148C19.7767 12.4817 20.5663 12.4482 21.4422 12.8479L21.7853 11.2824C21.3046 11.1162 20.704 10.9497 19.9483 10.9497C18.0086 10.9497 16.6352 11.9486 16.618 13.3973C16.6009 14.4631 17.5967 15.046 18.3349 15.3955C19.1073 15.762 19.3648 15.9784 19.3477 16.3119C19.3477 16.8111 18.7297 17.0275 18.1801 17.0275C17.1844 17.0442 16.618 16.7609 16.1544 16.5613L15.7939 18.1766C16.2575 18.3766 17.0988 18.5595 17.9743 18.5595C20.0342 18.5595 21.3905 17.5769 21.3905 16.0286C21.4247 14.1133 18.6437 13.997 18.6608 13.1308V13.1311ZM24.3434 15.8453L25.3905 13.0809L25.9743 15.8453H24.3434ZM25.0988 11.0828C24.9205 11.081 24.7457 11.1306 24.5961 11.2254C24.4465 11.3201 24.3287 11.4558 24.2575 11.6155L21.3046 18.4431H23.3648L23.7767 17.3439H26.3003L26.5407 18.4431H28.3602L26.7814 11.0657H25.0992V11.0824L25.0988 11.0828Z" fill="#1A1F71"/>
</svg>