<svg width="34" height="12" viewBox="0 0 34 12" fill="none" xmlns="http://www.w3.org/2000/svg">
<g clip-path="url(#clip0_13024_368772)">
<path d="M10.0273 0.197266L7.17009 7.52438L6.01129 1.29633C5.96537 0.990499 5.81263 0.711446 5.58076 0.509804C5.34889 0.308161 5.05325 0.197266 4.74747 0.197266H0.0615607L0 0.508667C0.936494 0.699099 1.84623 1.00548 2.7087 1.42089C2.8877 1.50908 3.04135 1.64232 3.15484 1.80784C3.26833 1.97332 3.33793 2.16559 3.35691 2.36609L5.55139 10.9461H8.4484L12.9025 0.197266H10.0273Z" fill="url(#paint0_linear_13024_368772)"/>
<path d="M14.0791 0.197754L11.8086 10.9393H14.5571L16.824 0.197754H14.0791Z" fill="url(#paint1_linear_13024_368772)"/>
<path d="M20.4284 3.17264C20.4284 2.78797 20.7905 2.38131 21.5945 2.27141C22.5235 2.18476 23.4585 2.35043 24.3032 2.75133L24.7848 0.476262C23.9637 0.16453 23.0943 0.00322393 22.2173 0C19.5014 0 17.593 1.46542 17.5749 3.55365C17.5749 5.09601 18.9401 5.96061 19.9794 6.4845C21.0187 7.00838 21.4279 7.34543 21.4025 7.81803C21.4025 8.55074 20.5479 8.85482 19.7621 8.86947C18.7789 8.89101 17.8065 8.65768 16.9375 8.19171L16.4414 10.5474C17.416 10.929 18.4528 11.1216 19.4978 11.1152C22.3948 11.1152 24.2669 9.67179 24.2778 7.45167C24.2778 4.61242 20.4031 4.45855 20.4284 3.19096" fill="url(#paint2_linear_13024_368772)"/>
<path d="M28.3817 7.1366L29.8302 3.10669L30.6522 7.1366H28.3817ZM29.4246 0.197828C29.1737 0.19508 28.9274 0.268682 28.7181 0.409143C28.5092 0.549603 28.3462 0.750403 28.2513 0.985493L24.1484 10.9467H27.0454L27.6176 9.34207H31.1338L31.4634 10.9467H33.9983L31.7531 0.197828H29.4246Z" fill="url(#paint3_linear_13024_368772)"/>
</g>
<defs>
<linearGradient id="paint0_linear_13024_368772" x1="-0.767707" y1="5.69626" x2="31.0672" y2="4.90161" gradientUnits="userSpaceOnUse">
<stop stop-color="#262C5C"/>
<stop offset="0.55" stop-color="#243576"/>
<stop offset="0.85" stop-color="#223A87"/>
</linearGradient>
<linearGradient id="paint1_linear_13024_368772" x1="168.29" y1="551.992" x2="609.419" y2="546.791" gradientUnits="userSpaceOnUse">
<stop stop-color="#262C5C"/>
<stop offset="0.55" stop-color="#243576"/>
<stop offset="0.85" stop-color="#223A87"/>
</linearGradient>
<linearGradient id="paint2_linear_13024_368772" x1="276.838" y1="575.556" x2="1010.51" y2="561.71" gradientUnits="userSpaceOnUse">
<stop stop-color="#262C5C"/>
<stop offset="0.55" stop-color="#243576"/>
<stop offset="0.85" stop-color="#223A87"/>
</linearGradient>
<linearGradient id="paint3_linear_13024_368772" x1="331.758" y1="565.378" x2="1197.74" y2="545.337" gradientUnits="userSpaceOnUse">
<stop stop-color="#262C5C"/>
<stop offset="0.55" stop-color="#243576"/>
<stop offset="0.85" stop-color="#223A87"/>
</linearGradient>
<clipPath id="clip0_13024_368772">
<rect width="34" height="11.1154" fill="white"/>
</clipPath>
</defs>
</svg>