<svg id="Слой_1" data-name="Слой 1" xmlns="http://www.w3.org/2000/svg" viewBox="0 0 121.33 88.96"><defs><style>.cls-1{fill:#c4e3db;}.cls-2,.cls-3{fill:none;stroke-linecap:round;stroke-miterlimit:10;stroke-width:5.67px;}.cls-2{stroke:#00a6a1;}.cls-3{stroke:#f5a473;}</style></defs><path class="cls-1" d="M20.64,73.09c1.08-.61,2.75,2.9,8.28,5.08,5.7,2.25,9.59.76,15.83.51,1.25-.05,13.39-.4,24,5.62,1.58.89,15.19,8.61,13.83,17-1,6.1-9.31,9.24-12.81,10.56a36.57,36.57,0,0,1-30.4-2.18C20.86,99.22,18,74.57,20.64,73.09Z" transform="translate(-13.83 -28.87)"/><path class="cls-2" d="M16.67,39.87a140.53,140.53,0,0,0,2,22.47C21,75.46,22.65,86.66,29.94,98.09,33.73,104,37,109.16,43.73,112.38c12,5.75,24.27.31,26-.51a33.58,33.58,0,0,0,14.3-12.76,27.63,27.63,0,0,0,10.21,6.12c13.43,4.43,25-3.69,25.54-4.08C129.27,94.28,135,80.8,131.05,72c-3-6.64-8.79-4.26-25-16.85A152.53,152.53,0,0,1,92.24,42.94c-4.18-4.18-7.58-8-10.21-11.24" transform="translate(-13.83 -28.87)"/><path class="cls-2" d="M27.9,65.91a27.89,27.89,0,0,0,11.75,3.58c6.32.41,7.79-1.85,14.29-2a33.72,33.72,0,0,1,18.9,5.61A35,35,0,0,1,83.05,83.28" transform="translate(-13.83 -28.87)"/><path class="cls-2" d="M93.26,78.17a20,20,0,0,1,13.79-11.23" transform="translate(-13.83 -28.87)"/><path class="cls-3" d="M37.21,93.6a20.08,20.08,0,0,0,5.11,6.13,22.15,22.15,0,0,0,9.19,4.08,28.12,28.12,0,0,0,13.79.51,26.79,26.79,0,0,0,11.23-5.61" transform="translate(-13.83 -28.87)"/><path class="cls-3" d="M92.24,94.51a33.69,33.69,0,0,0,6.64,2,33.1,33.1,0,0,0,9.19.51" transform="translate(-13.83 -28.87)"/></svg>