<svg id="Слой_1" data-name="Слой 1" xmlns="http://www.w3.org/2000/svg" viewBox="0 0 82.66 93.91"><defs><style>.cls-1{fill:#c4e3db;}.cls-2,.cls-3{fill:none;stroke-linecap:round;stroke-miterlimit:10;stroke-width:5.67px;}.cls-2{stroke:#00a6a1;}.cls-3{stroke:#f5a473;}.cls-4{fill:#f5a473;}</style></defs><path class="cls-1" d="M39.66,45.07c1.81.25-1.44,11.24,4.34,20.17,3.54,5.46,9,8,14,10.21,8,3.61,10,1.88,20.42,6.13,9.88,4,11.79,7.07,12.51,9.19.78,2.29.49,4.42,0,7.92-.12.86-1.36,9.79-3.83,10-1.79.12-1.84-4.56-5.87-7.91C77.8,97.82,74.5,98.55,69,97.42A40.24,40.24,0,0,1,52.26,89.2,43.89,43.89,0,0,1,38.64,71.11C37.09,67.28,34.35,60.25,36.26,52,37,48.77,38.59,44.92,39.66,45.07Z" transform="translate(-33.17 -26.55)"/><path class="cls-2" d="M54.22,31.54a24.39,24.39,0,0,0-11.75,6.64C33.68,47.4,36.17,61,36.86,64.73c3.08,16.83,17,26.76,24.51,30.13C68.31,98,78.53,99.45,80.73,99a1.16,1.16,0,0,1,.55,0c1.86.45,1.08,5.77,2.55,9.7,1.73,4.63,6.76,7.81,11.24,8.68,5.46,1.07,13.77-.61,16.34-7.14,2-5-1.3-14.5-10.5-18.07-1.81-.71,1.56-3.29,3.35-6.45a89,89,0,0,0,7.15-15.31c3.09-8,1.45-17.94-3.07-25A29.48,29.48,0,0,0,94.56,34.09" transform="translate(-33.17 -26.55)"/><path class="cls-2" d="M82.71,29.61l-16.42-.23" transform="translate(-33.17 -26.55)"/><path class="cls-3" d="M91,98.69a7.23,7.23,0,0,0,4.85,10,7.72,7.72,0,0,0,6.9-2" transform="translate(-33.17 -26.55)"/><path class="cls-4" d="M98.13,103.74c3.22,0,3.22-5,0-5s-3.22,5,0,5Z" transform="translate(-33.17 -26.55)"/></svg>