<svg id="Слой_1" data-name="Слой 1" xmlns="http://www.w3.org/2000/svg" viewBox="0 0 120.58 101.59"><defs><style>.cls-1{fill:#c4e3db;}.cls-2,.cls-3{fill:none;stroke-linecap:round;stroke-miterlimit:10;stroke-width:5.67px;}.cls-2{stroke:#00a6a1;}.cls-3{stroke:#f5a473;}</style></defs><path class="cls-1" d="M17.57,42.58c2.67-2.34,9.43.08,13.61,3.75s4.86,7.57,7.49,16c4.18,13.4,6.62,18.4,8.86,21.1,5.35,6.46,9.45,6.84,22.8,17.36,1.61,1.27,5.45,2.47,7.15,6.13a10.92,10.92,0,0,1-.25,9.51c-3.37,6.09-13.2,6.77-19.68,4.78-2.57-.79-5.63-2.31-10-6.69-5.92-6-8.57-11.48-14-23.1-7.3-15.71-9.89-21.6-12.88-30.15C15.58,46.5,16.21,43.78,17.57,42.58Z" transform="translate(-14.21 -22.7)"/><path class="cls-2" d="M43.78,30a52.33,52.33,0,0,0-15.32,5.1C20.92,39,18.53,40.2,17.57,42.58c-.69,1.71-.7,3.4,0,7.15a73.79,73.79,0,0,0,5.1,16.34c4.88,11.22,3.09,8.7,7.15,17.7a217.65,217.65,0,0,0,16,28.26c1.75,2.61,2.57,3.71,4.09,4.76,2.2,1.53,3.74,7.15,21.1,3.41,3.06-.66,8.63-5.46,9.53-7.49s-.61-4.54-1.36-5.79c0,0-.59-1-11.91-24.51-2.22-4.61-6.2-13.66-5.11-14.3.81-.46,3.76,6.91,10.55,16,18.93,25.34,20.23,24.42,24.86,26.56,13.17,6.09,26.85-1.29,30.29-3.75,2.41-1.71,4.06-3.42,4.09-4.08.15-3.2-2.61-4.4-5.11-5.79s-10.55-8.1-21.78-19.4A78.37,78.37,0,0,1,87.35,51.09c-4.87-12.67-1.45-17.3-8.17-22.81-3.17-2.6-7.25-2.83-9.87-2.72" transform="translate(-14.21 -22.7)"/><path class="cls-2" d="M53.33,26.84l8.17-1" transform="translate(-14.21 -22.7)"/><path class="cls-3" d="M27.1,45.65A80.86,80.86,0,0,0,38.33,45C53,43.42,54.14,43.64,63.57,39.61" transform="translate(-14.21 -22.7)"/><path class="cls-3" d="M73.4,33.05l-4.09,3.74" transform="translate(-14.21 -22.7)"/><path class="cls-2" d="M62.84,66.41a17.71,17.71,0,0,0,2.56-6.89,18.39,18.39,0,0,0-2.56-12" transform="translate(-14.21 -22.7)"/></svg>