<svg id="Слой_1" data-name="Слой 1" xmlns="http://www.w3.org/2000/svg" viewBox="0 0 112.76 101.32"><defs><style>.cls-1{fill:#c4e3db;}.cls-2,.cls-3{fill:none;stroke-linecap:round;stroke-miterlimit:10;stroke-width:5.67px;}.cls-2{stroke:#00a6a1;}.cls-3{stroke:#f5a473;}</style></defs><path class="cls-1" d="M23.35,62.11c0-3.33,4.62-5.7,7.64-7.26,2.6-1.35,9.48-4.91,17.08-2.37,7.3,2.43,10.67,9,12.53,12.57,1.95,3.77,2.93,9.13,4.9,19.84,1.29,7,1.51,9.85,3.65,14.18,1.52,3.09,3.27,6.63,7.06,9.08,2.64,1.71,4.05,1.44,13.15,3.55,6.46,1.49,9.68,2.26,9.75,3.08C99.3,117.3,87.35,123,75,121.49c-2.87-.34-12.31-1.46-15.94-8-.8-1.44-1-2.5-1.42-5-4.27-22.82-6.86-20.68-7.15-30.3-.08-2.68,0-5.76-2-7.49s-5.15-1.46-7.15-1.36c-2.69.13-3.47.72-5.14.92C30.58,70.93,23.3,66.33,23.35,62.11Z" transform="translate(-18.12 -22.15)"/><path class="cls-2" d="M66.9,42.22c-2.26.18-9.28.74-15-3-1.24-.8-1.32-3.56-4-4.1-1.07-.22-4.61,1-7.71,1.8-9.52,2.46-15,11.32-17.78,15.77A8.87,8.87,0,0,0,21,56.88c-.27,3.7,2.26,6.56,3.49,7.95.39.44,6.22,6.87,11.66,5.44,1.63-.42,2.67-.19,4.84-1.76,4.47-3.25,4.39-3.39,6-2.48,1.84,1,1.37,6,1.64,7.07,2.14,8.55,4.14,22.78,7,31.58,1.72,5.39,2.59,8.08,4.75,10.46,8.83,9.71,27.92,4.23,38.95,1.17,9.34-2.59,20.4-5.66,21.4-12,.67-4.29-4-5.24-9.54-16.37-.78-1.56-2.73-7.41-6.65-19.1-2-6-3.55-10.73-2.49-11.31.75-.41,1.88,1.82,4.46,2.85,5.94,2.39,13.43-4,14-4.48,6.2-5.4,9.1-14.56,6.82-16.49-1.25-1.07-2.91,1-7.38,1.28-5.42.3-12.49-2.23-15.91-7.3-1.72-2.56-1.86-4.79-4.6-6.66A10.55,10.55,0,0,0,94.47,25" transform="translate(-18.12 -22.15)"/><path class="cls-2" d="M72.79,39.7l6.69-2.87" transform="translate(-18.12 -22.15)"/><path class="cls-2" d="M84.93,32.32l2.24-1.71" transform="translate(-18.12 -22.15)"/><path class="cls-3" d="M68.16,111.22a74.3,74.3,0,0,0,41.11-9.45" transform="translate(-18.12 -22.15)"/></svg>